<?xml version="1.0" encoding="UTF-8" standalone="no"?>
<svg
   width="485.479"
   height="406.36401"
   viewBox="0 0 485.479 406.36401"
   fill="none"
   version="1.1"
   id="svg357"
   sodipodi:docname="illustrations.svg"
   inkscape:version="1.1.1 (eb90963e84, 2021-10-02)"
   xmlns:inkscape="http://www.inkscape.org/namespaces/inkscape"
   xmlns:sodipodi="http://sodipodi.sourceforge.net/DTD/sodipodi-0.dtd"
   xmlns="http://www.w3.org/2000/svg"
   xmlns:svg="http://www.w3.org/2000/svg">
  <sodipodi:namedview
     id="namedview359"
     pagecolor="#ffffff"
     bordercolor="#666666"
     borderopacity="1.0"
     inkscape:pageshadow="2"
     inkscape:pageopacity="0.0"
     inkscape:pagecheckerboard="0"
     showgrid="false"
     inkscape:zoom="0.62150221"
     inkscape:cx="-201.12559"
     inkscape:cy="448.10782"
     inkscape:window-width="1920"
     inkscape:window-height="1016"
     inkscape:window-x="0"
     inkscape:window-y="27"
     inkscape:window-maximized="1"
     inkscape:current-layer="svg357" />
  <mask
     id="mask0_413_1263"
     maskUnits="userSpaceOnUse"
     x="125"
     y="120"
     width="487"
     height="407">
    <path
       d="m 333.999,141.052 c -83.872,-57.2708 -217.326,7.635 -208,144.182 15.902,232.818 178.136,259.862 319.999,232.818 C 631.634,482.664 674.463,270.298 503.053,285.234 365.492,297.221 438.839,212.64 333.999,141.052 Z"
       fill="#fcddd4"
       id="path4" />
  </mask>
  <g
     id="g475"
     transform="translate(-125.53532,-120.21406)">
    <path
       d="M 334,141.051 C 250.128,83.781 116.674,148.687 126,285.234 141.902,518.052 304.136,545.096 445.999,518.052 631.635,482.664 674.464,270.297 503.054,285.234 365.493,297.221 438.84,212.639 334,141.051 Z"
       fill="#fcddd4"
       id="path2" />
    <g
       mask="url(#mask0_413_1263)"
       id="g11">
      <path
         opacity="0.7"
         d="m 101.071,156.138 c 27.631,-12.132 92.808,-29.613 132.468,-2.489 49.576,33.906 -103.789,77.74 -56.592,103.537 47.197,25.797 135.389,-82.595 169.475,-63.964 34.087,18.632 -86.732,68.339 -51.578,94.363 35.154,26.023 138.255,-87.837 180.924,-66.217 42.668,21.62 -102.005,83.821 -33.833,121.084"
         stroke="url(#paint0_linear_413_1263)"
         stroke-width="2"
         id="path7"
         style="stroke:url(#paint0_linear_413_1263)" />
      <path
         d="m 271,545.051 c 0,-27.614 22.386,-50 50,-50 h 267 v 110 H 271 Z"
         fill="#f58a6b"
         id="path9" />
    </g>
    <path
       fill-rule="evenodd"
       clip-rule="evenodd"
       d="m 158.367,299.676 c 1.637,1.347 2.917,2.79 3.926,4.178 l 2.632,-3.511 c -1.248,-1.324 -2.464,-2.529 -3.918,-3.67 z"
       fill="#3e1a0b"
       id="path13" />
    <path
       fill-rule="evenodd"
       clip-rule="evenodd"
       d="m 166.9,305.808 c -1.48,-2.665 -4.783,-3.565 -7.417,-1.967 l -3.49,2.211 c -2.634,1.599 -3.471,5.14 -2.11,7.837 1.479,2.665 4.783,3.565 7.416,1.967 l 3.491,-2.211 c 2.633,-1.599 3.622,-5.053 2.11,-7.837 z"
       fill="#f69e9f"
       id="path15" />
    <path
       fill-rule="evenodd"
       clip-rule="evenodd"
       d="m 308.099,194.245 -61.828,10.189 -3.293,-19.91 c -0.328,-1.698 -1.933,-2.926 -3.782,-2.686 l -49.01,8.03 c -1.698,0.328 -2.927,1.932 -2.687,3.781 l 3.294,19.91 -58.28,9.621 c -1.461,0.264 -2.602,1.717 -2.339,3.178 l 39.892,243.154 c 0.263,1.46 1.717,2.601 3.178,2.337 l 175.618,-28.816 c 1.46,-0.263 2.602,-1.717 2.338,-3.177 L 311.19,196.733 c -0.058,-1.642 -1.599,-2.633 -3.091,-2.488 z"
       fill="url(#paint1_linear_413_1263)"
       id="path17"
       style="fill:url(#paint1_linear_413_1263)" />
    <path
       fill-rule="evenodd"
       clip-rule="evenodd"
       d="m 299.519,225.048 -154.332,25.408 c -1.341,0.232 -2.276,1.503 -2.045,2.844 l 34.559,210.397 c 0.232,1.341 1.503,2.276 2.845,2.044 l 154.331,-25.408 c 1.341,-0.232 2.277,-1.503 2.045,-2.844 L 302.363,227.092 c -0.232,-1.341 -1.503,-2.276 -2.844,-2.044 z"
       fill="#f36f49"
       id="path19" />
    <path
       fill-rule="evenodd"
       clip-rule="evenodd"
       d="m 299.044,217.591 -150.578,24.657 c -1.341,0.232 -2.157,1.471 -1.926,2.812 l 33.728,205.39 c 0.232,1.341 1.471,2.157 2.812,1.926 l 150.665,-24.809 c 1.341,-0.232 2.157,-1.471 1.926,-2.812 l -33.728,-205.39 c -0.319,-1.19 -1.558,-2.006 -2.899,-1.774 z"
       fill="#fafbfc"
       id="path21" />
    <path
       opacity="0.8"
       d="m 293.514,226.472 -136.982,22.545 c -0.746,0.072 -1.397,0.501 -1.745,1.105 -0.349,0.604 -0.546,1.294 -0.474,2.04 l 31.129,189.504 c 0.072,0.746 0.502,1.396 1.106,1.745 0.603,0.348 1.294,0.546 2.04,0.473 l 137.014,-22.426 c 0.746,-0.072 1.396,-0.502 1.745,-1.105 0.348,-0.604 0.546,-1.295 0.474,-2.041 L 296.66,228.69 c -0.073,-0.746 -0.502,-1.396 -1.106,-1.745 -0.603,-0.348 -1.294,-0.546 -2.04,-0.473 z m 33.204,192.008 c 0.127,0.477 -0.015,0.897 -0.309,1.231 -0.293,0.334 -0.618,0.549 -1.094,0.676 L 188.452,442.9 c -0.476,0.128 -0.897,-0.015 -1.231,-0.308 -0.333,-0.293 -0.548,-0.618 -0.676,-1.094 L 155.384,251.875 c -0.127,-0.476 0.015,-0.897 0.308,-1.23 0.294,-0.334 0.619,-0.549 1.095,-0.676 l 136.982,-22.545 c 0.476,-0.128 0.897,0.014 1.231,0.308 0.333,0.293 0.548,0.618 0.676,1.094 z"
       fill="#f58a6b"
       id="path23" />
    <path
       fill-rule="evenodd"
       clip-rule="evenodd"
       d="m 215.471,191.384 c -2.92,0.528 -4.878,3.221 -4.351,6.141 0.528,2.92 3.221,4.877 6.142,4.35 2.92,-0.528 4.878,-3.221 4.351,-6.141 -0.496,-2.801 -3.221,-4.877 -6.142,-4.35 z"
       fill="#fafbfc"
       id="path25" />
    <path
       fill-rule="evenodd"
       clip-rule="evenodd"
       d="m 256.594,199.627 -77.003,12.597 c -1.699,0.327 -2.927,1.932 -2.687,3.781 l 3.589,21.489 c 0.327,1.698 1.932,2.926 3.782,2.686 l 77.003,-12.597 c 1.698,-0.327 2.927,-1.932 2.686,-3.781 l -3.501,-21.64 c -0.447,-1.666 -2.171,-2.863 -3.869,-2.535 z"
       fill="#f58a6b"
       id="path27" />
    <path
       opacity="0.8"
       fill-rule="evenodd"
       clip-rule="evenodd"
       d="m 215.151,209.711 -29.334,4.799 c -1.342,0.232 -2.277,1.503 -2.045,2.844 l 2.789,16.601 c 0.232,1.341 1.503,2.276 2.845,2.044 L 218.74,231.2 c 1.342,-0.232 2.277,-1.503 2.045,-2.844 l -2.789,-16.601 c -0.232,-1.341 -1.503,-2.276 -2.845,-2.044 z"
       fill="#f36f49"
       id="path29" />
    <path
       opacity="0.2"
       d="m 211.061,264.02 0.339,2.066 80.624,-13.253 -0.34,-2.066 z"
       fill="#ee4d47"
       id="path31" />
    <path
       opacity="0.2"
       d="m 211.91,269.251 0.34,2.067 80.623,-13.254 -0.34,-2.066 z"
       fill="#ee4d47"
       id="path33" />
    <path
       opacity="0.2"
       d="m 252.971,267.704 0.34,2.067 40.372,-6.637 -0.34,-2.067 z"
       fill="#ee4d47"
       id="path35" />
    <path
       opacity="0.2"
       d="m 212.757,274.342 0.34,2.067 37.818,-6.217 -0.339,-2.067 z"
       fill="#ee4d47"
       id="path37" />
    <path
       opacity="0.2"
       d="m 216.621,298.205 0.34,2.067 80.623,-13.253 -0.34,-2.067 z"
       fill="#ee4d47"
       id="path39" />
    <path
       opacity="0.2"
       d="m 217.471,303.437 0.34,2.067 80.623,-13.254 -0.34,-2.067 z"
       fill="#ee4d47"
       id="path41" />
    <path
       opacity="0.2"
       d="m 258.655,301.87 0.34,2.067 40.372,-6.637 -0.339,-2.067 z"
       fill="#ee4d47"
       id="path43" />
    <path
       opacity="0.2"
       d="m 218.32,308.528 0.339,2.066 37.819,-6.216 -0.34,-2.067 z"
       fill="#ee4d47"
       id="path45" />
    <path
       opacity="0.2"
       d="m 221.678,328.865 0.34,2.067 80.623,-13.254 -0.34,-2.066 z"
       fill="#ee4d47"
       id="path47" />
    <path
       opacity="0.2"
       d="m 222.528,334.096 0.339,2.067 80.623,-13.253 -0.339,-2.067 z"
       fill="#ee4d47"
       id="path49" />
    <path
       opacity="0.2"
       d="m 263.711,332.529 0.34,2.067 40.372,-6.637 -0.34,-2.066 z"
       fill="#ee4d47"
       id="path51" />
    <path
       opacity="0.2"
       d="m 223.374,339.188 0.34,2.067 37.819,-6.217 -0.34,-2.067 z"
       fill="#ee4d47"
       id="path53" />
    <path
       opacity="0.2"
       d="m 226.848,360.445 0.34,2.067 80.623,-13.253 -0.34,-2.067 z"
       fill="#ee4d47"
       id="path55" />
    <path
       opacity="0.2"
       d="m 227.719,365.798 0.34,2.067 80.623,-13.253 -0.34,-2.067 z"
       fill="#ee4d47"
       id="path57" />
    <path
       opacity="0.2"
       d="m 268.901,364.231 0.339,2.067 40.373,-6.636 -0.34,-2.067 z"
       fill="#ee4d47"
       id="path59" />
    <path
       opacity="0.2"
       d="m 228.565,370.89 0.339,2.067 37.819,-6.217 -0.34,-2.067 z"
       fill="#ee4d47"
       id="path61" />
    <path
       opacity="0.2"
       d="m 231.939,391.822 0.339,2.067 80.623,-13.253 -0.339,-2.067 z"
       fill="#ee4d47"
       id="path63" />
    <path
       opacity="0.2"
       d="m 232.788,397.054 0.34,2.067 80.623,-13.254 -0.34,-2.067 z"
       fill="#ee4d47"
       id="path65" />
    <path
       opacity="0.2"
       d="m 273.972,395.486 0.34,2.067 40.372,-6.636 -0.34,-2.067 z"
       fill="#ee4d47"
       id="path67" />
    <path
       opacity="0.2"
       d="m 233.758,402.126 0.34,2.066 37.818,-6.216 -0.339,-2.067 z"
       fill="#ee4d47"
       id="path69" />
    <path
       opacity="0.2"
       d="m 173.021,264.37 -0.985,0.136 0.136,0.984 3.03,18.45 0.136,0.984 0.984,-0.136 19.795,-3.263 0.984,-0.137 -0.136,-0.984 -3.03,-18.449 -0.136,-0.984 -0.984,0.136 z m 21.871,15.442 -17.977,2.903 -2.789,-16.6 17.858,-2.872 z"
       fill="#ee4d47"
       id="path71" />
    <path
       opacity="0.2"
       d="m 178.657,299.214 -0.984,0.136 0.255,0.952 3.03,18.45 0.136,0.984 0.984,-0.136 19.795,-3.263 0.984,-0.136 -0.136,-0.984 -3.03,-18.45 -0.136,-0.984 -0.984,0.136 z m 21.872,15.442 -17.858,2.871 -2.789,-16.6 17.858,-2.872 z"
       fill="#ee4d47"
       id="path73" />
    <path
       opacity="0.2"
       d="m 184.149,332.566 -0.984,0.136 0.136,0.984 3.03,18.45 0.136,0.984 0.984,-0.136 19.795,-3.263 0.984,-0.137 -0.136,-0.984 -3.03,-18.449 -0.136,-0.984 -0.984,0.136 z m 21.872,15.442 -17.858,2.871 -2.789,-16.6 17.858,-2.872 z"
       fill="#ee4d47"
       id="path75" />
    <path
       opacity="0.2"
       d="m 189.705,366.156 -0.984,0.136 0.136,0.984 3.062,18.569 0.136,0.984 0.984,-0.136 19.794,-3.263 0.985,-0.136 -0.137,-0.984 -3.029,-18.45 -0.136,-0.984 -0.985,0.136 z m 21.872,15.442 -17.858,2.872 -2.789,-16.601 17.858,-2.871 z"
       fill="#ee4d47"
       id="path77" />
    <path
       opacity="0.2"
       d="m 195.062,398.524 -0.985,0.137 0.136,0.984 3.03,18.449 0.136,0.984 0.985,-0.136 19.794,-3.263 0.984,-0.136 -0.136,-0.984 -3.03,-18.45 -0.136,-0.984 -0.984,0.136 z m 21.84,15.323 -17.858,2.872 -2.79,-16.601 17.858,-2.871 z"
       fill="#ee4d47"
       id="path79" />
    <path
       d="m 185.335,273.188 -10.326,-6.162 -1.165,1.843 11.351,6.653 0.906,0.523 0.523,-0.906 13.969,-22.622 -1.811,-1.045 z"
       fill="#ee4d47"
       id="path81" />
    <path
       d="m 191.228,308.984 -10.327,-6.162 -1.165,1.843 11.352,6.653 0.873,0.404 0.555,-0.787 13.937,-22.741 -1.811,-1.045 z"
       fill="#f58a6b"
       id="path83" />
    <path
       d="m 202.507,377.268 -10.446,-6.13 -1.046,1.811 11.233,6.685 0.905,0.522 0.523,-0.905 14.089,-22.654 -1.843,-1.164 z"
       fill="#f58a6b"
       id="path85" />
    <path
       fill-rule="evenodd"
       clip-rule="evenodd"
       d="m 173.106,483.239 c -1.072,0.287 -1.682,1.343 -1.395,2.414 0.287,1.072 1.344,1.681 2.415,1.394 1.072,-0.287 1.682,-1.343 1.395,-2.414 -0.287,-1.071 -1.344,-1.681 -2.415,-1.394 z"
       fill="#fafbfc"
       id="path87" />
    <path
       d="m 202.496,474.838 c 0.745,-0.334 1.077,-1.209 0.743,-1.954 -0.335,-0.745 -1.21,-1.078 -1.955,-0.743 -0.745,0.335 -1.078,1.21 -0.743,1.955 0.334,0.745 1.21,1.077 1.955,0.742 z"
       fill="#fafbfc"
       id="path89" />
    <path
       d="m 243.28,462.777 c 0.592,-0.159 0.943,-0.767 0.784,-1.358 -0.158,-0.592 -0.766,-0.943 -1.358,-0.784 -0.592,0.158 -0.943,0.766 -0.784,1.358 0.158,0.592 0.766,0.943 1.358,0.784 z"
       fill="#fafbfc"
       id="path91" />
    <path
       fill-rule="evenodd"
       clip-rule="evenodd"
       d="m 264.495,458.623 c -0.953,0.256 -1.476,1.161 -1.22,2.113 0.255,0.952 1.16,1.475 2.113,1.22 0.952,-0.255 1.475,-1.161 1.22,-2.113 -0.224,-0.833 -1.161,-1.475 -2.113,-1.22 z"
       fill="#fafbfc"
       id="path93" />
    <path
       fill-rule="evenodd"
       clip-rule="evenodd"
       d="m 296.748,451.384 c -0.358,0.096 -0.532,0.398 -0.436,0.755 0.095,0.357 0.397,0.531 0.754,0.436 0.358,-0.096 0.532,-0.398 0.436,-0.755 0.024,-0.389 -0.397,-0.531 -0.754,-0.436 z"
       fill="#fafbfc"
       id="path95" />
    <path
       fill-rule="evenodd"
       clip-rule="evenodd"
       d="m 363.373,429.578 c -0.595,0.159 -0.825,0.731 -0.697,1.207 0.159,0.595 0.731,0.825 1.207,0.697 0.596,-0.159 0.825,-0.731 0.698,-1.207 -0.009,-0.508 -0.613,-0.857 -1.208,-0.697 z"
       fill="#fafbfc"
       id="path97" />
    <path
       d="m 474.479,238.052 c 0,-11.046 -8.955,-20 -20,-20 h -75.48 c -11.045,0 -20,8.954 -20,20 v 10.402 c 0,11.046 8.955,20 20,20 h 95.48 z"
       fill="#ffffff"
       id="path99" />
    <circle
       r="3.8280399"
       transform="matrix(-1,0,0,1,448.32,243.572)"
       fill="#f4a984"
       id="circle101"
       cx="0"
       cy="0" />
    <circle
       r="3.8280399"
       transform="matrix(-1,0,0,1,432.369,243.572)"
       fill="#f4a984"
       id="circle103"
       cx="0"
       cy="0" />
    <circle
       r="3.8280399"
       transform="matrix(-1,0,0,1,416.419,243.572)"
       fill="#f4a984"
       id="circle105"
       cx="0"
       cy="0" />
    <circle
       r="3.8280399"
       transform="matrix(-1,0,0,1,400.469,243.572)"
       fill="#f4a984"
       id="circle107"
       cx="0"
       cy="0" />
    <circle
       r="3.8280399"
       transform="matrix(-1,0,0,1,384.519,243.572)"
       fill="#f4a984"
       id="circle109"
       cx="0"
       cy="0" />
    <path
       d="m 325,405.552 c -43.6,0 -21.5,-63 -5,-94.501 8.833,-6.666 30.5,-20.099 46.5,-20.499 16,-0.4 26,19.5 29,29.5 -1.833,0.166 -3.7,7.8 3.5,37 7.2,29.2 3.667,44.5 1,48.5 z"
       fill="#402b2b"
       id="path111" />
    <path
       d="m 370.599,390.592 c -4.112,-7.189 -1.028,-18.315 -1.028,-18.315 l -12.68,2.568 -12.68,-2.568 c 0,0 1.542,5.306 1.028,11.126 4.455,5.135 14.737,14.721 25.36,7.189 z"
       fill="url(#paint2_linear_413_1263)"
       id="path113"
       style="fill:url(#paint2_linear_413_1263)" />
    <path
       d="m 368.797,376.285 c -2.775,1.672 -6.282,3.219 -10.207,4.406 -4.924,1.489 -9.615,2.14 -13.298,2 0.337,-5.533 -1.081,-10.414 -1.081,-10.414 l 12.68,2.568 12.68,-2.568 c 0,0 -0.447,1.613 -0.774,4.008 z"
       fill="url(#paint3_linear_413_1263)"
       style="mix-blend-mode:multiply;fill:url(#paint3_linear_413_1263)"
       id="path115" />
    <path
       d="m 325.876,400.691 c 7.368,6.505 21.933,20.712 31.186,20.712 9.254,0 25.704,-13.523 33.072,-20.027 -3.599,-1.369 -14.565,-5.649 -17.136,-7.874 -0.856,-0.856 -1.713,-1.883 -2.227,-2.91 -10.624,7.532 -20.905,-2.054 -25.361,-7.36 -0.342,3.766 -1.37,7.531 -4.283,10.099 -2.914,2.396 -11.824,5.991 -15.251,7.36 z"
       fill="url(#paint4_linear_413_1263)"
       id="path117"
       style="fill:url(#paint4_linear_413_1263)" />
    <path
       d="m 391.776,333.422 c -1.2,-2.225 -3.084,-2.568 -4.284,-2.225 0,0 -3.427,-10.955 -5.826,-19 -8.054,-3.766 -15.593,-7.018 -24.675,-7.703 v -0.171 c -1.371,0 -3.77,0 -5.141,0 -5.654,0.171 -11.309,0.342 -16.792,1.369 -1.371,0.343 -2.742,0.685 -4.113,0.685 -1.713,9.072 -4.626,24.991 -5.826,24.82 h -0.171 c -0.172,0 -0.172,0 -0.343,-0.172 -1.199,-0.342 -2.57,0 -3.77,2.054 -2.056,3.766 0,11.298 2.742,13.523 1.371,1.027 2.57,1.883 3.427,2.396 1.371,6.847 3.77,13.351 7.368,17.288 9.425,10.099 18.164,12.325 20.563,12.667 0.171,0 0.514,0 0.685,0 0,0 0.172,0 0.343,0 1.713,-0.171 11.138,-1.883 21.248,-12.838 3.598,-3.766 6.169,-6.504 7.711,-16.603 1.028,-0.514 2.056,-1.37 3.77,-2.739 3.084,-2.054 5.14,-9.585 3.084,-13.351 z"
       fill="url(#paint5_linear_413_1263)"
       id="path119"
       style="fill:url(#paint5_linear_413_1263)" />
    <path
       d="m 356.736,343.052 c 0,0 0.132,3.856 -0.911,5.125 -1.043,1.269 -3.022,2.497 -3.185,3.446 -0.191,0.768 0.637,2.116 2.082,2.447 1.445,0.33 1.68,0.848 1.68,0.848 0,0 -2.667,0.781 -4.335,-0.992 -1.668,-1.772 -0.406,-3.629 0.816,-4.741 1.222,-1.112 1.771,-1.566 2.293,-2.2 0.673,-0.658 1.56,-3.933 1.56,-3.933 z"
       fill="#d87c60"
       id="path121" />
    <path
       d="m 367.066,360.052 h -20.702 c -0.675,0 -1.152,0.655 -0.881,1.274 1.46,3.335 5.041,8.226 11.017,8.226 5.951,0 9.784,-4.852 11.429,-8.185 0.308,-0.624 -0.167,-1.315 -0.863,-1.315 z"
       fill="#d87c60"
       id="path123" />
    <path
       fill-rule="evenodd"
       clip-rule="evenodd"
       d="m 366.976,363.052 h -20.609 c -0.352,-0.598 -0.646,-1.183 -0.883,-1.726 -0.271,-0.619 0.205,-1.274 0.881,-1.274 h 20.701 c 0.696,0 1.172,0.691 0.864,1.315 -0.263,0.531 -0.581,1.102 -0.954,1.685 z"
       fill="#ffffff"
       id="path125" />
    <path
       d="m 376.598,291.999 c 25.531,3.252 19.534,34.405 14.565,39.882 l -3.663,6.171 c -1.833,-3.167 -5.6,-11.9 -6,-21.5 -3.833,2.5 -15.3,7.5 -30.5,7.5 -19,0 -24.208,3.145 -26,12 -4.455,-9.928 -7.519,-30.017 3.447,-41.314 15.079,-15.748 37.869,-19.514 48.151,-2.739 z"
       fill="#402b2b"
       id="path127" />
    <path
       d="m 325.019,335.989 0.857,7.361 c 0,0 -2.571,-1.37 -3.085,-4.793 -0.171,-2.054 0.686,-3.423 2.228,-2.568 z"
       fill="#ed8a40"
       id="path129" />
    <path
       d="m 387.219,335.989 -0.857,7.361 c 0,0 2.571,-1.37 3.085,-4.793 0.171,-2.054 -0.514,-3.423 -2.228,-2.568 z"
       fill="#ed8a40"
       id="path131" />
    <path
       d="m 373.685,344.312 c 0,1.541 -1.199,2.91 -2.913,2.91 -1.542,0 -2.913,-1.198 -2.913,-2.91 0,-1.54 1.2,-2.91 2.913,-2.91 1.714,0 2.913,1.37 2.913,2.91 z"
       fill="#402b2b"
       id="path133" />
    <path
       d="m 343.184,347.222 c 1.608,0 2.913,-1.303 2.913,-2.91 0,-1.607 -1.305,-2.91 -2.913,-2.91 -1.609,0 -2.913,1.303 -2.913,2.91 0,1.607 1.304,2.91 2.913,2.91 z"
       fill="#402b2b"
       id="path135" />
    <path
       d="m 335.541,338.912 c 1.249,-1.362 4.905,-4.087 9.537,-4.087"
       stroke="#402b2b"
       stroke-width="2"
       id="path137" />
    <path
       d="m 368.58,334.942 c 1.847,-0.08 6.359,0.578 9.635,3.854"
       stroke="#402b2b"
       stroke-width="2"
       id="path139" />
    <path
       d="m 418.065,439.547 c 0.685,-18.486 -4.969,-29.441 -13.537,-34.063 -8.568,-4.621 -28.787,-10.441 -29.473,-10.612 l -18.335,14.549 -17.478,-14.549 c -0.685,0.171 -21.419,5.991 -29.815,10.612 -8.568,4.622 -14.223,15.577 -13.537,34.063 0.514,14.892 -0.515,38.342 -0.343,55.459 h 123.032 c 0,-17.117 -1.028,-40.567 -0.514,-55.459 z"
       fill="url(#paint6_linear_413_1263)"
       id="path141"
       style="fill:url(#paint6_linear_413_1263)" />
    <path
       d="m 366.83,401.205 -4.798,-2.225 -5.484,10.099 -5.483,-10.099 -4.969,2.225 7.197,11.64 v 82.161 h 6.682 v -82.675 z"
       fill="#ee4d47"
       fill-opacity="0.29"
       style="mix-blend-mode:multiply"
       id="path143" />
    <path
       d="m 345.239,383.232 c -0.171,4.964 6.855,17.802 6.855,17.802 l -12.167,11.81 -3.941,-17.116 c 0,0 3.941,-10.442 9.253,-12.496 z"
       fill="#ffffff"
       id="path145" />
    <path
       d="m 368.543,383.232 c 0.171,4.964 -7.711,17.973 -7.711,17.973 l 12.852,11.639 3.941,-17.288 c 0,0 -3.77,-10.27 -9.082,-12.324 z"
       fill="#ffffff"
       id="path147" />
    <path
       d="m 358.607,415.754 c 0,1.027 -0.857,1.883 -1.885,1.883 -1.028,0 -1.885,-0.856 -1.885,-1.883 0,-1.027 0.857,-1.882 1.885,-1.882 1.028,0 1.885,0.855 1.885,1.882 z"
       fill="#ffffff"
       id="path149" />
    <path
       d="m 358.606,433.214 c 0,1.027 -0.857,1.883 -1.885,1.883 -1.028,0 -1.885,-0.856 -1.885,-1.883 0,-1.027 0.857,-1.883 1.885,-1.883 1.028,0 1.885,0.684 1.885,1.883 z"
       fill="#ffffff"
       id="path151" />
    <path
       d="m 358.606,450.331 c 0,1.027 -0.857,1.882 -1.885,1.882 -1.028,0 -1.885,-0.855 -1.885,-1.882 0,-1.027 0.857,-1.883 1.885,-1.883 1.028,0 1.885,0.856 1.885,1.883 z"
       fill="#ffffff"
       id="path153" />
    <path
       d="m 358.606,469.33 c 0,1.028 -0.857,1.883 -1.885,1.883 -1.028,0 -1.885,-0.855 -1.885,-1.883 0,-1.027 0.857,-1.882 1.885,-1.882 1.028,0 1.885,0.855 1.885,1.882 z"
       fill="#ffffff"
       id="path155" />
    <path
       d="m 298.631,410.619 c 0,0 -18.164,48.784 -19.534,56.829 -1.2,8.045 9.081,26.702 13.879,27.387 7.026,1.027 12.68,-1.027 19.706,-13.009 6.854,-11.982 5.655,-63.162 5.655,-63.162 z"
       fill="url(#paint7_linear_413_1263)"
       id="path157"
       style="fill:url(#paint7_linear_413_1263)" />
    <path
       d="m 318.508,413.872 c 0,0 -1.2,58.882 -3.77,66.242 -4.113,11.811 -14.565,15.063 -14.565,15.063 h 11.652 c 0,0 9.082,-5.991 9.938,-23.964 0.515,-10.783 -1.37,-45.188 -2.398,-56.657 -0.343,-3.081 -0.857,-0.684 -0.857,-0.684 z"
       fill="#ee4d47"
       fill-opacity="0.29"
       style="mix-blend-mode:multiply"
       id="path159" />
    <path
       d="m 322.535,408.315 -19.701,-7.951 -4.108,10.157 19.701,7.951 z"
       fill="#ffffff"
       id="path161" />
    <path
       d="m 396.989,422.259 c 0,0 -7.026,33.378 -7.54,47.072 -0.514,13.693 0,25.504 0,25.504 l 4.969,0.342 c 0,0 1.2,-59.909 2.571,-72.918 z"
       fill="#ee4d47"
       fill-opacity="0.29"
       style="mix-blend-mode:multiply"
       id="path163" />
    <path
       d="m 337.356,376.043 c -9.425,0 -12.509,-4.621 -14.394,-11.639 -0.857,-3.766 -1.199,-13.865 -1.199,-14.207 h 2.741 c 0,0.171 0.343,10.27 1.2,13.693 1.713,6.676 4.284,10.099 13.537,9.414 l 0.171,2.739 c -0.685,0 -1.371,0 -2.056,0 z"
       fill="#ffffff"
       id="path165" />
    <path
       d="m 356.72,282.927 c -7.54,-0.685 -24.847,-0.171 -32.729,14.892 0,0 2.056,3.594 4.455,1.198 8.568,-7.703 20.563,-7.874 27.931,-7.874 7.54,0 20.049,0 28.445,7.874 2.57,2.225 4.455,-1.198 4.455,-1.198 -7.711,-15.063 -25.018,-15.577 -32.557,-14.892 z"
       fill="#ffffff"
       id="path167" />
    <path
       d="m 397.33,334.62 c 0,0 -0.342,-10.441 -0.514,-13.351 -0.342,-5.649 -1.199,-14.892 -3.084,-19.856 -6.169,-16.946 -26.217,-20.198 -36.67,-20.198 -10.624,0 -31.015,3.252 -37.184,20.027 -1.713,4.793 -2.57,13.351 -3.084,19.171 -0.171,3.423 -0.343,14.036 -0.343,14.036 h 2.913 c 0,0 0,-10.613 0.343,-14.036 0.343,-4.451 1.199,-10.955 3.427,-17.117 5.141,-14.549 24.161,-16.09 33.414,-16.09 9.425,0 28.788,1.541 33.928,16.09 2.399,6.847 3.256,13.865 3.599,18.315 0.171,2.91 0.342,13.009 0.342,13.009 z"
       fill="url(#paint8_linear_413_1263)"
       id="path169"
       style="fill:url(#paint8_linear_413_1263)" />
    <path
       d="m 320.05,332.566 h -3.77 v 16.09 h 3.77 z"
       fill="#ffffff"
       id="path171" />
    <path
       d="m 326.733,351.737 h -4.284 c -2.056,0 -3.769,-1.712 -3.769,-3.766 v -14.72 c 0,-2.054 1.713,-3.766 3.769,-3.766 h 4.284 c 0.514,0 0.857,0.342 0.857,0.856 v 20.369 c 0,0.513 -0.343,1.027 -0.857,1.027 z"
       fill="url(#paint9_linear_413_1263)"
       id="path173"
       style="fill:url(#paint9_linear_413_1263)" />
    <path
       d="m 314.738,350.025 h -0.171 c -0.857,0 -1.543,-0.684 -1.543,-1.54 v -16.09 c 0,-0.856 0.686,-1.541 1.543,-1.541 h 0.171 c 0.857,0 1.542,0.685 1.542,1.541 v 16.09 c 0,0.856 -0.685,1.54 -1.542,1.54 z"
       fill="url(#paint10_linear_413_1263)"
       id="path175"
       style="fill:url(#paint10_linear_413_1263)" />
    <path
       d="m 393.177,348.934 h 3.77 v -16.09 h -3.77 z"
       fill="#ffffff"
       id="path177" />
    <path
       d="m 386.707,352.079 h 4.284 c 2.056,0 3.769,-1.712 3.769,-3.766 v -14.72 c 0,-2.054 -1.713,-3.766 -3.769,-3.766 h -4.284 c -0.514,0 -0.857,0.342 -0.857,0.856 v 20.369 c -0.171,0.514 0.343,1.027 0.857,1.027 z"
       fill="url(#paint11_linear_413_1263)"
       id="path179"
       style="fill:url(#paint11_linear_413_1263)" />
    <path
       d="m 398.53,350.368 h 0.172 c 0.857,0 1.542,-0.685 1.542,-1.541 v -16.09 c 0,-0.856 -0.685,-1.54 -1.542,-1.54 h -0.172 c -0.856,0 -1.542,0.684 -1.542,1.54 v 16.09 c 0,0.856 0.686,1.541 1.542,1.541 z"
       fill="url(#paint12_linear_413_1263)"
       id="path181"
       style="fill:url(#paint12_linear_413_1263)" />
    <path
       d="m 347.467,374.331 c 0,1.712 -2.056,3.253 -4.798,3.253 -2.57,0 -4.798,-1.37 -4.798,-3.253 0,-1.883 2.056,-3.252 4.798,-3.252 2.57,0 4.798,1.369 4.798,3.252 z"
       fill="url(#paint13_linear_413_1263)"
       id="path183"
       style="fill:url(#paint13_linear_413_1263)" />
    <path
       fill-rule="evenodd"
       clip-rule="evenodd"
       d="m 311.654,363.377 10e-4,-0.001 c 1.594,-1.492 3.419,-2.522 5.173,-3.391 3.153,-2.04 6.829,-4.36 8.192,-4.996 2.742,-1.369 4.455,1.027 0.514,4.451 -0.855,0.743 -1.848,1.534 -2.877,2.318 2.14,-0.82 4.034,-1.524 4.933,-1.805 2.913,-0.855 4.284,1.883 -0.343,4.451 -1.882,1.044 -4.245,2.173 -6.387,3.146 l 0.733,2.331 c 0,0 2.057,-1.883 2.742,-2.396 4.284,-2.91 6.511,-0.514 4.627,2.054 -2.057,2.567 -5.141,9.928 -4.113,15.063 0.685,3.423 0.171,8.216 -0.685,11.982 -0.857,3.594 -6.169,14.207 -6.169,14.207 l -13.708,-4.793 c 0,0 3.084,-3.252 2.57,-11.126 -0.152,-2.581 -1.18,-5.296 -2.203,-7.997 -1.283,-3.39 -2.558,-6.756 -2.081,-9.805 0.857,-4.792 7.882,-12.494 9.082,-13.693 z"
       fill="url(#paint14_linear_413_1263)"
       id="path185"
       style="fill:url(#paint14_linear_413_1263)" />
    <path
       opacity="0.3"
       d="m 323.992,383.917 c 0.343,-4.279 0,-5.135 -0.343,-7.189 -0.343,-2.397 0.172,-5.478 -0.857,-7.703 -1.199,-2.396 -3.084,-3.765 -6.34,-3.081 -4.284,1.027 -5.997,3.252 -5.997,3.252 0,0 3.427,-1.369 5.141,-1.882 2.57,-0.685 5.14,-0.514 6.168,2.567 0.514,1.883 0.857,4.45 1.2,6.333 0.171,1.37 1.199,7.361 0.342,7.532 -0.856,0 -2.741,-0.514 -3.598,-3.595 -0.171,0.685 -0.343,5.307 -0.857,5.307 -3.084,-0.343 -3.427,-2.739 -3.598,-5.307 0,-1.198 -0.172,-2.91 -0.514,-5.135 -1.2,1.883 -4.113,3.595 -5.312,4.451 1.371,1.198 3.941,4.108 4.969,5.306 1.885,2.225 3.598,5.648 3.941,9.243 4.627,-4.45 2.056,-9.072 1.885,-10.613 1.2,1.37 3.599,2.397 3.77,0.514 z"
       fill="#eb5046"
       id="path187" />
    <path
       d="m 518.309,383.917 c 0,-2.568 -2.057,-4.45 -4.798,-4.45 H 386.88 c -2.57,0 -4.798,2.054 -4.798,4.45 v 78.738 h 136.055 v -78.738 z"
       fill="url(#paint15_linear_413_1263)"
       id="path189"
       style="fill:url(#paint15_linear_413_1263)" />
    <path
       d="m 387.051,477.547 h 126.631 c 2.57,0 4.798,-2.054 4.798,-4.451 v -10.27 H 382.424 v 10.27 c -0.171,2.397 2.057,4.451 4.627,4.451 z"
       fill="#ca3f3a"
       id="path191" />
    <path
       d="M 470.159,475.664 H 436.23 v 16.09 h 33.929 z"
       fill="#ca3f3a"
       id="path193" />
    <path
       d="m 474.27,475.664 h -33.928 v 16.09 h 33.928 z"
       fill="url(#paint16_linear_413_1263)"
       id="path195"
       style="fill:url(#paint16_linear_413_1263)" />
    <path
       d="m 468.616,490.213 h -41.982 v 4.622 h 41.982 z"
       fill="url(#paint17_linear_413_1263)"
       id="path197"
       style="fill:url(#paint17_linear_413_1263)" />
    <path
       d="m 482.324,490.213 h -41.982 v 4.622 h 41.982 z"
       fill="url(#paint18_linear_413_1263)"
       id="path199"
       style="fill:url(#paint18_linear_413_1263)" />
    <path
       d="m 525.334,383.917 c 0,-2.568 -2.056,-4.45 -4.797,-4.45 h -126.46 c -2.57,0 -4.798,2.054 -4.798,4.45 v 78.738 h 136.055 z"
       fill="url(#paint19_linear_413_1263)"
       id="path201"
       style="fill:url(#paint19_linear_413_1263)" />
    <path
       d="m 394.077,477.547 h 126.631 c 2.57,0 4.798,-2.054 4.798,-4.451 v -10.27 H 389.45 v 10.27 c -0.171,2.397 1.885,4.451 4.627,4.451 z"
       fill="url(#paint20_linear_413_1263)"
       id="path203"
       style="fill:url(#paint20_linear_413_1263)" />
    <path
       opacity="0.2"
       d="m 469.644,413.872 c 0,6.846 -5.484,12.324 -12.338,12.324 -6.854,0 -12.337,-5.478 -12.337,-12.324 0,-6.847 5.483,-12.325 12.337,-12.325 6.854,0 12.338,5.478 12.338,12.325 z"
       fill="#ffffff"
       id="path205" />
    <path
       d="m 354.664,490.213 h -29.302 v 4.451 h 29.302 z"
       fill="url(#paint21_linear_413_1263)"
       id="path207"
       style="fill:url(#paint21_linear_413_1263)" />
    <path
       d="m 403.329,490.213 h -61.517 v 4.451 h 61.517 z"
       fill="url(#paint22_linear_413_1263)"
       id="path209"
       style="fill:url(#paint22_linear_413_1263)" />
    <g
       clip-path="url(#clip0_413_1263)"
       id="g219">
      <path
         d="m 594,461.022 h -80 v 33.931 h 80 z"
         fill="#fcddd4"
         id="path211" />
      <path
         fill-rule="evenodd"
         clip-rule="evenodd"
         d="m 554.445,452.177 v 0.077 c 0.634,-1.769 1.905,-4.585 4.043,-8.785 4.242,-8.042 8.977,-14.22 8.977,-14.22 0,0 -2.072,6.865 -6.313,14.906 -3.751,7.197 -5.805,10.101 -6.707,10.541 v 0.41 c 1.087,-1.429 3.479,-3.88 7.693,-7.715 7.004,-6.276 13.909,-10.787 13.909,-10.787 0,0 -4.439,5.786 -11.443,12.16 -4.107,3.687 -6.829,5.897 -8.528,7.03 1.73,-1.069 4.42,-2.536 8.331,-4.48 8.681,-4.315 16.572,-6.963 16.572,-6.963 0,0 -6.115,4.413 -14.796,8.728 -6.611,3.361 -10.19,4.788 -11.738,5.061 v 0.295 c 1.392,-0.771 4.953,-2.007 11.738,-3.885 9.568,-2.648 17.953,-3.824 17.953,-3.824 0,0 -7.3,3.236 -16.868,5.884 -3.12,0.863 -5.61,1.497 -7.56,1.939 1.975,-0.329 4.527,-0.683 7.757,-1.057 10.16,-1.275 18.643,-1.177 18.643,-1.177 0,0 -7.99,2.158 -18.15,3.335 -8.18,1.026 -12.204,1.162 -13.513,0.87 v 0.208 h -0.987 v -0.14 c -0.182,0.053 -0.436,0.096 -0.79,0.14 h -2.86 c -2.17,-0.098 -5.426,-0.294 -9.963,-0.882 -10.161,-1.275 -18.151,-3.335 -18.151,-3.335 0,0 8.484,-0.098 18.644,1.177 3.053,0.354 5.5,0.681 7.427,0.981 -1.898,-0.437 -4.284,-1.048 -7.23,-1.863 -9.667,-2.648 -16.868,-5.884 -16.868,-5.884 0,0 8.385,1.176 17.953,3.824 6.954,1.924 10.521,3.175 11.838,3.941 v -0.346 c -1.492,-0.25 -5.081,-1.707 -11.837,-5.066 -8.681,-4.315 -14.797,-8.728 -14.797,-8.728 0,0 7.892,2.648 16.572,6.963 3.667,1.823 6.26,3.225 7.995,4.275 -1.728,-1.186 -4.374,-3.35 -8.192,-6.825 -7.004,-6.374 -11.443,-12.16 -11.443,-12.16 0,0 6.905,4.413 13.909,10.787 3.01,2.74 5.091,4.774 6.431,6.233 -1.151,-1.489 -2.938,-4.431 -5.544,-9.371 -4.241,-8.041 -6.313,-14.906 -6.313,-14.906 0,0 4.834,6.178 8.977,14.22 2.39,4.639 3.697,7.614 4.242,9.338 v -0.922 c -0.53,-1.217 -0.888,-4.734 -0.888,-11.75 0,-9.023 1.381,-16.377 1.381,-16.377 0,0 1.381,7.354 1.381,16.377 0,7.012 -0.358,10.529 -0.887,11.748 z m -0.987,2.872 c -0.146,-0.011 -0.337,-0.121 -0.579,-0.343 0.227,0.27 0.419,0.512 0.579,0.729 z m 0,1.861 c -0.241,-0.063 -0.553,-0.199 -0.943,-0.417 0.378,0.251 0.691,0.474 0.943,0.671 z m 0.987,-0.018 c 0.271,-0.207 0.604,-0.44 1.005,-0.701 -0.413,0.246 -0.746,0.407 -1.005,0.492 z m -0.987,2.678 c -0.318,0.021 -0.766,-10e-4 -1.362,-0.073 0.631,0.161 1.077,0.311 1.362,0.45 z m 0.987,0.22 c 0.37,-0.17 0.958,-0.359 1.801,-0.563 -0.803,0.12 -1.395,0.167 -1.801,0.152 z"
         fill="#f37753"
         id="path213" />
      <path
         d="m 548.624,460.728 h -18.446 c 2.861,-0.196 6.313,-0.294 9.963,-0.294 3.551,0 6.412,0.098 8.483,0.294 z"
         fill="#f37753"
         id="path215" />
      <path
         d="m 559.179,460.728 h 18.446 c -2.86,-0.196 -6.313,-0.392 -9.963,-0.294 -3.65,0.098 -6.412,0.196 -8.483,0.294 z"
         fill="#f37753"
         id="path217" />
    </g>
    <path
       d="m 427,299.052 c 0,-11.046 8.954,-20 20,-20 h 112.619 c 11.045,0 20,8.954 20,20 v 26.612 c 0,11.046 -8.955,20 -20,20 H 427 Z"
       fill="#f69477"
       id="path221" />
    <circle
       opacity="0.5"
       cx="461.57101"
       cy="312.78"
       r="5.0591898"
       fill="#ffffff"
       id="circle223" />
    <circle
       opacity="0.5"
       cx="482.651"
       cy="312.78"
       r="5.0591898"
       fill="#ffffff"
       id="circle225" />
    <circle
       opacity="0.5"
       cx="503.73099"
       cy="312.78"
       r="5.0591898"
       fill="#ffffff"
       id="circle227" />
    <circle
       opacity="0.5"
       cx="524.81097"
       cy="312.78"
       r="5.0591898"
       fill="#ffffff"
       id="circle229" />
    <circle
       opacity="0.5"
       cx="545.89099"
       cy="312.78"
       r="5.0591898"
       fill="#ffffff"
       id="circle231" />
  </g>
  <defs
     id="defs355">
    <linearGradient
       id="paint0_linear_413_1263"
       x1="310.40799"
       y1="178.118"
       x2="227.95599"
       y2="328.965"
       gradientUnits="userSpaceOnUse">
      <stop
         stop-color="#F37753"
         id="stop233" />
      <stop
         offset="1"
         stop-color="white"
         stop-opacity="0"
         id="stop235" />
    </linearGradient>
    <linearGradient
       id="paint1_linear_413_1263"
       x1="223.522"
       y1="144.035"
       x2="271.12701"
       y2="470.013"
       gradientUnits="userSpaceOnUse">
      <stop
         stop-color="#F7A58D"
         id="stop238" />
      <stop
         offset="1"
         stop-color="#F58A6B"
         id="stop240" />
    </linearGradient>
    <linearGradient
       id="paint2_linear_413_1263"
       x1="371.78799"
       y1="382.548"
       x2="368.733"
       y2="348.76199"
       gradientUnits="userSpaceOnUse">
      <stop
         stop-color="#FFB3B6"
         id="stop243" />
      <stop
         offset="1"
         stop-color="#FFC8C1"
         id="stop245" />
    </linearGradient>
    <linearGradient
       id="paint3_linear_413_1263"
       x1="344.38"
       y1="378.58899"
       x2="373.11401"
       y2="388.93701"
       gradientUnits="userSpaceOnUse">
      <stop
         stop-color="#FFB3B6"
         stop-opacity="0.31"
         id="stop248" />
      <stop
         offset="1"
         stop-color="#FFC8C1"
         id="stop250" />
    </linearGradient>
    <linearGradient
       id="paint4_linear_413_1263"
       x1="397.36301"
       y1="436.45999"
       x2="391.23401"
       y2="373.259"
       gradientUnits="userSpaceOnUse">
      <stop
         stop-color="#FFB3B6"
         id="stop253" />
      <stop
         offset="1"
         stop-color="white"
         id="stop255" />
    </linearGradient>
    <linearGradient
       id="paint5_linear_413_1263"
       x1="395.87299"
       y1="369.90799"
       x2="389.98901"
       y2="319.27899"
       gradientUnits="userSpaceOnUse">
      <stop
         stop-color="#FFB3B6"
         id="stop258" />
      <stop
         offset="1"
         stop-color="#FFC8C1"
         id="stop260" />
    </linearGradient>
    <linearGradient
       id="paint6_linear_413_1263"
       x1="357.05301"
       y1="371.69299"
       x2="357.05301"
       y2="497.74799"
       gradientUnits="userSpaceOnUse">
      <stop
         stop-color="#F4A984"
         id="stop263" />
      <stop
         offset="1"
         stop-color="#EE4D47"
         id="stop265" />
    </linearGradient>
    <linearGradient
       id="paint7_linear_413_1263"
       x1="298.70901"
       y1="391.07199"
       x2="298.70901"
       y2="497.379"
       gradientUnits="userSpaceOnUse">
      <stop
         stop-color="#F4A984"
         id="stop268" />
      <stop
         offset="1"
         stop-color="#EE4D47"
         id="stop270" />
    </linearGradient>
    <linearGradient
       id="paint8_linear_413_1263"
       x1="356.89099"
       y1="268.853"
       x2="356.89099"
       y2="336.082"
       gradientUnits="userSpaceOnUse">
      <stop
         stop-color="#F4A984"
         id="stop273" />
      <stop
         offset="1"
         stop-color="#EE4D47"
         id="stop275" />
    </linearGradient>
    <linearGradient
       id="paint9_linear_413_1263"
       x1="323.13501"
       y1="324.33401"
       x2="323.13501"
       y2="352.34601"
       gradientUnits="userSpaceOnUse">
      <stop
         stop-color="#F4A984"
         id="stop278" />
      <stop
         offset="1"
         stop-color="#EE4D47"
         id="stop280" />
    </linearGradient>
    <linearGradient
       id="paint10_linear_413_1263"
       x1="314.65201"
       y1="326.41699"
       x2="314.65201"
       y2="350.54999"
       gradientUnits="userSpaceOnUse">
      <stop
         stop-color="#F4A984"
         id="stop283" />
      <stop
         offset="1"
         stop-color="#EE4D47"
         id="stop285" />
    </linearGradient>
    <linearGradient
       id="paint11_linear_413_1263"
       x1="390.28799"
       y1="324.67599"
       x2="390.28799"
       y2="352.68799"
       gradientUnits="userSpaceOnUse">
      <stop
         stop-color="#F4A984"
         id="stop288" />
      <stop
         offset="1"
         stop-color="#EE4D47"
         id="stop290" />
    </linearGradient>
    <linearGradient
       id="paint12_linear_413_1263"
       x1="398.616"
       y1="326.759"
       x2="398.616"
       y2="350.892"
       gradientUnits="userSpaceOnUse">
      <stop
         stop-color="#F4A984"
         id="stop293" />
      <stop
         offset="1"
         stop-color="#EE4D47"
         id="stop295" />
    </linearGradient>
    <linearGradient
       id="paint13_linear_413_1263"
       x1="342.66901"
       y1="369.573"
       x2="342.66901"
       y2="377.76199"
       gradientUnits="userSpaceOnUse">
      <stop
         stop-color="#F4A984"
         id="stop298" />
      <stop
         offset="1"
         stop-color="#EE4D47"
         id="stop300" />
    </linearGradient>
    <linearGradient
       id="paint14_linear_413_1263"
       x1="316"
       y1="408.552"
       x2="338.5"
       y2="324.552"
       gradientUnits="userSpaceOnUse">
      <stop
         stop-color="#FFB3B6"
         id="stop303" />
      <stop
         offset="0.239165"
         stop-color="#FFC5C7"
         id="stop305" />
      <stop
         offset="1"
         stop-color="white"
         id="stop307" />
    </linearGradient>
    <linearGradient
       id="paint15_linear_413_1263"
       x1="431.10501"
       y1="630.315"
       x2="431.10501"
       y2="145.243"
       gradientUnits="userSpaceOnUse">
      <stop
         stop-color="#FFEDBA"
         id="stop310" />
      <stop
         offset="0.423008"
         stop-color="#F16D5E"
         id="stop312" />
      <stop
         offset="0.651925"
         stop-color="#EE4D47"
         id="stop314" />
    </linearGradient>
    <linearGradient
       id="paint16_linear_413_1263"
       x1="452.55099"
       y1="524.18201"
       x2="452.55099"
       y2="430.36099"
       gradientUnits="userSpaceOnUse">
      <stop
         stop-color="#FFEDBA"
         id="stop317" />
      <stop
         offset="1"
         stop-color="#EE4D47"
         id="stop319" />
    </linearGradient>
    <linearGradient
       id="paint17_linear_413_1263"
       x1="441.741"
       y1="512.32397"
       x2="441.741"
       y2="485.82401"
       gradientUnits="userSpaceOnUse">
      <stop
         stop-color="#FFEDBA"
         id="stop322" />
      <stop
         offset="1"
         stop-color="#EE4D47"
         id="stop324" />
    </linearGradient>
    <linearGradient
       id="paint18_linear_413_1263"
       x1="455.44901"
       y1="504.14899"
       x2="455.44901"
       y2="477.20099"
       gradientUnits="userSpaceOnUse">
      <stop
         stop-color="#FFEDBA"
         id="stop327" />
      <stop
         offset="1"
         stop-color="#EE4D47"
         id="stop329" />
    </linearGradient>
    <linearGradient
       id="paint19_linear_413_1263"
       x1="438.23999"
       y1="517.09302"
       x2="438.23999"
       y2="300.45901"
       gradientUnits="userSpaceOnUse">
      <stop
         stop-color="#FFEDBA"
         id="stop332" />
      <stop
         offset="1"
         stop-color="#EE4D47"
         id="stop334" />
    </linearGradient>
    <linearGradient
       id="paint20_linear_413_1263"
       x1="438.405"
       y1="507.215"
       x2="438.405"
       y2="421.379"
       gradientUnits="userSpaceOnUse">
      <stop
         stop-color="#FFEDBA"
         id="stop337" />
      <stop
         offset="1"
         stop-color="#EE4D47"
         id="stop339" />
    </linearGradient>
    <linearGradient
       id="paint21_linear_413_1263"
       x1="335.90701"
       y1="511.505"
       x2="335.90701"
       y2="485.98599"
       gradientUnits="userSpaceOnUse">
      <stop
         stop-color="#FFEDBA"
         id="stop342" />
      <stop
         offset="1"
         stop-color="#EE4D47"
         id="stop344" />
    </linearGradient>
    <linearGradient
       id="paint22_linear_413_1263"
       x1="363.95001"
       y1="490.18399"
       x2="363.95001"
       y2="470.76901"
       gradientUnits="userSpaceOnUse">
      <stop
         stop-color="#FFEDBA"
         id="stop347" />
      <stop
         offset="1"
         stop-color="#EE4D47"
         id="stop349" />
    </linearGradient>
    <clipPath
       id="clip0_413_1263">
      <rect
         width="80"
         height="71"
         fill="#ffffff"
         transform="translate(514,424.052)"
         id="rect352"
         x="0"
         y="0" />
    </clipPath>
  </defs>
</svg>
