<?xml version="1.0" encoding="UTF-8" standalone="no"?>
<svg
   width="1600"
   height="1500"
   viewBox="0 0 1600 1500"
   fill="none"
   version="1.1"
   id="svg509"
   sodipodi:docname="FAQ.svg"
   inkscape:version="1.1.1 (eb90963e84, 2021-10-02)"
   xmlns:inkscape="http://www.inkscape.org/namespaces/inkscape"
   xmlns:sodipodi="http://sodipodi.sourceforge.net/DTD/sodipodi-0.dtd"
   xmlns="http://www.w3.org/2000/svg"
   xmlns:svg="http://www.w3.org/2000/svg">
  <sodipodi:namedview
     id="namedview511"
     pagecolor="#ffffff"
     bordercolor="#666666"
     borderopacity="1.0"
     inkscape:pageshadow="2"
     inkscape:pageopacity="0.0"
     inkscape:pagecheckerboard="0"
     showgrid="false"
     inkscape:zoom="0.56266667"
     inkscape:cx="362.55924"
     inkscape:cy="608.70853"
     inkscape:window-width="1920"
     inkscape:window-height="1016"
     inkscape:window-x="0"
     inkscape:window-y="27"
     inkscape:window-maximized="1"
     inkscape:current-layer="svg509" />
  <mask
     id="mask0_413_1629"
     maskUnits="userSpaceOnUse"
     x="617"
     y="241"
     width="606"
     height="358">
    <path
       d="m 1164.64,482.849 c 65.46,-71.411 89.26,-215.718 0,-235.555 -132.36,-29.415 -66.95,74.385 -391.768,19.836 -201.244,-33.796 -185.965,166.128 -74.386,277.707 111.58,111.58 384.324,27.275 466.154,-61.988 z"
       fill="#fcddd4"
       id="path10" />
  </mask>
  <g
     id="g494"
     transform="translate(200)">
    <path
       d="M 1400,0 H 430 C 319.543,0 230,89.5431 230,200 v 1300 h 1170 z"
       fill="#fdede8"
       id="path2" />
    <path
       d="m 1164.64,482.85 c 65.46,-71.411 89.26,-215.719 0,-235.556 -132.36,-29.415 -66.95,74.386 -391.768,19.836 -201.244,-33.796 -185.965,166.128 -74.386,277.708 111.58,111.579 384.324,27.275 466.154,-61.988 z"
       fill="#fcddd4"
       id="path8" />
    <g
       mask="url(#mask0_413_1629)"
       id="g87">
      <path
         opacity="0.7"
         d="m 574.51,450.019 c 32.463,-42.212 118.445,-124.527 202.674,-116.084 105.285,10.553 -94.757,208.424 0,208.424 94.756,0 139.502,-242.722 207.938,-242.722 68.438,0 -76.332,179.403 0,189.956 76.328,10.553 139.498,-253.275 223.728,-255.913 84.23,-2.638 -86.86,216.339 50.01,216.339"
         stroke="url(#paint0_linear_413_1629)"
         stroke-width="2"
         id="path13"
         style="stroke:url(#paint0_linear_413_1629)" />
      <path
         d="m 1297.97,547.861 c 0,27.531 -15.84,49.774 -35.33,49.774 h -35.33 c -19.49,0 -35.15,-22.426 -35.15,-49.774 0,-27.531 15.84,-49.775 35.33,-49.775 0.36,0 0.55,0 0.91,0 h 34.24 c 19.67,0 35.33,22.426 35.33,49.775 z"
         fill="#402b2b"
         id="path15" />
      <path
         d="m 1021.13,547.314 c 0,27.531 -15.84,49.774 -35.329,49.774 h -35.334 c -19.488,0 -35.151,-22.426 -35.151,-49.774 0,-27.531 15.845,-49.775 35.333,-49.775 0.365,0 0.547,0 0.911,0 h 34.241 c 19.669,0 35.329,22.244 35.329,49.775 z"
         fill="#f48767"
         id="path17" />
      <path
         d="m 1300.34,543.121 -142.24,-0.365 16.39,-9.663 107.64,0.182 z"
         fill="#402b2b"
         id="path19" />
      <path
         d="m 1434.57,461.987 -0.18,91.344 -115.47,-0.182 -36.79,-19.873 -107.64,-0.183 -33.15,19.691 -234.952,-0.547 c -3.825,0 -6.921,-3.099 -6.921,-6.928 l 0.182,-84.416 z"
         fill="#f36f49"
         id="path21" />
      <path
         d="m 1182.86,482.771 -184.315,-0.364 0.365,-167.191 c 0,-6.746 5.46,-12.216 12.38,-12.216 l 172.12,0.365 z"
         fill="#f48767"
         id="path23" />
      <path
         d="m 1470.27,483.501 -287.22,-0.547 0.36,-179.407 275.02,0.547 c 6.74,0 12.2,5.47 12.2,12.398 z"
         fill="#f06a5b"
         id="path25" />
      <path
         d="m 1044.45,547.314 c 0,27.531 15.66,49.774 35.15,49.774 h 35.15 v -16.774 c 12.93,0 23.49,-14.768 23.49,-33 0,-18.233 -10.38,-33.001 -23.31,-33.001 v -16.774 h -35.15 c -19.49,0.183 -35.15,22.426 -35.33,49.775 z"
         fill="#f48767"
         id="path27" />
      <path
         d="m 1143.89,547.679 c 0,22.608 -12.93,40.841 -28.96,40.658 -16.03,0 -28.78,-18.232 -28.78,-40.84 0,-22.608 12.93,-40.841 28.96,-40.658 15.85,0 28.78,18.232 28.78,40.84 z"
         fill="#f48767"
         id="path29" />
      <path
         d="m 1114.93,574.48 c -10.56,0 -18.94,-12.034 -18.94,-26.984 0,-14.951 8.56,-26.802 19.12,-26.802 10.57,0 18.95,12.033 18.95,26.984 0,14.951 -8.56,26.802 -19.13,26.802 z m 0,-42.846 c -6.19,0 -11.29,7.11 -11.29,15.862 0,8.751 5.1,16.044 11.29,16.044 6.19,0 11.29,-7.11 11.29,-15.862 0,-8.934 -4.91,-16.044 -11.29,-16.044 z"
         fill="#f7a58d"
         id="path31" />
      <path
         d="m 1114.93,597.271 c -19.49,0 -35.15,-22.426 -35.15,-49.775 0,-27.348 15.84,-49.774 35.33,-49.774 19.49,0 35.15,22.426 35.15,49.774 0,27.349 -16.02,49.957 -35.33,49.775 z m 0.18,-90.433 c -16.02,0 -28.96,18.232 -28.96,40.658 0,22.608 12.75,40.841 28.78,40.841 16.03,0 28.96,-18.233 28.96,-40.659 0,-22.608 -12.93,-40.84 -28.78,-40.84 z"
         fill="#f7a58d"
         id="path33" />
      <path
         d="m 1119.85,547.496 c 0,-3.829 -2.19,-6.746 -4.74,-6.746 -2.55,0 -4.73,3.1 -4.92,6.746 0,3.829 2.19,6.746 4.74,6.746 2.73,0.183 4.92,-2.917 4.92,-6.746 z"
         fill="#5b2929"
         id="path35" />
      <path
         d="m 876.52,411.119 c 0,0.729 -0.546,1.276 -1.093,1.458 -1.457,0.365 -6.921,0.365 -8.56,-0.182 -0.729,-0.182 -1.457,-0.729 -1.457,-1.641 -0.546,-14.586 -0.546,-28.807 0,-42.299 0,-0.912 0.728,-1.459 1.457,-1.641 1.821,-0.547 8.196,-0.912 10.199,-0.182 0.729,0.182 1.275,0.911 1.275,1.641 0.365,13.856 -0.182,28.078 -1.821,42.846 z"
         fill="#f69276"
         id="path37" />
      <path
         d="m 885.443,424.063 c -0.182,0 -0.364,0 -0.729,-0.182 l -12.385,-6.199 c -2.914,-1.459 -4.735,-4.376 -4.735,-7.658 l 0.182,-45.763 c 0,-1.823 1.457,-3.282 3.278,-3.282 h 34.059 c 0.911,0 1.457,0.729 1.457,1.459 0,0.911 -0.728,1.458 -1.457,1.458 h -34.059 c -0.182,0 -0.182,0.182 -0.182,0.182 l -0.182,45.764 c 0,2.188 1.275,4.011 3.096,4.923 l 12.385,6.199 c 0.729,0.364 1.093,1.276 0.729,2.005 -0.364,0.912 -0.911,1.094 -1.457,1.094 z"
         fill="#f69276"
         id="path39" />
      <path
         d="m 1158.09,482.406 c 0,0 -4.73,0 -12.02,0 h -28.95 c -21.68,0 -26.78,10.757 -40.07,37.194 l -42.08,-0.182 c 0,0 0,-3.099 0,-8.387 l -160.638,-0.364 c -0.728,-13.31 -2.186,-40.294 -2.186,-65.819 0,-0.912 0,-1.641 0,-2.553 0,-7.293 1.275,-15.315 3.461,-23.337 8.56,-31.36 30.234,-64.725 39.159,-76.941 2.914,-4.011 5.464,-7.475 7.649,-10.575 6.193,-8.204 10.382,-12.398 18.213,-12.398 l 194.702,0.547 c 4.01,0 7.65,2.735 8.74,6.564 16.76,61.625 14.21,108.482 14.02,156.251 z M 993.993,341.288 c 0.182,-0.912 -0.546,-1.641 -1.457,-1.641 l -59.193,-0.183 c -3.46,0 -6.921,1.824 -9.107,4.923 -23.13,31.542 -32.419,60.349 -35.88,76.941 l -3.642,17.503 c -0.547,2.552 1.092,4.558 3.642,4.558 h 14.389 c 2.368,0 4.917,-1.094 6.739,-2.917 l 29.505,-28.26 c 3.279,-3.1 7.65,-4.923 11.839,-4.923 h 35.334 z"
         fill="#f36f49"
         id="path41" />
      <path
         d="m 1024.59,419.505 c -1.27,5.835 -2.73,11.852 -4,18.233 -0.91,4.376 -4.74,7.475 -9.11,7.658 -57.554,2.005 -105.273,2.187 -139.331,-0.365 0,-0.912 0,-1.641 0,-2.553 0,-7.293 1.275,-15.315 3.46,-23.337 z"
         fill="#f6977c"
         id="path43" />
      <path
         d="m 1130.96,339.83 -59.19,-0.183 c -3.46,0 -6.56,1.823 -8.2,4.923 -16.57,31.542 -20.03,60.349 -20.03,76.941 v 17.503 c 0,2.552 2,4.558 4.55,4.558 h 14.39 c 2.37,0 4.73,-1.094 6.19,-2.917 l 23.68,-28.26 c 2.73,-3.1 6.55,-5.106 10.74,-4.923 h 35.34 l -5.65,-66.002 c 0,-0.911 -0.73,-1.64 -1.82,-1.64 z"
         fill="#f36f49"
         id="path45" />
      <path
         d="m 1158.09,482.406 c 0,0 -4.73,0 -12.02,0 h -28.95 c -21.68,0 -26.78,10.757 -40.07,37.194 l -42.08,-0.182 c 0,0 0,-3.099 0,-8.387 l -160.638,-0.364 c -0.728,-13.31 -2.186,-40.294 -2.186,-65.819 34.059,2.552 81.96,2.552 139.334,0.364 4.37,-0.182 8.19,-3.282 9.1,-7.657 1.28,-6.382 2.74,-12.581 4.01,-18.233 7.83,-33.365 16.39,-57.249 27.69,-83.139 0.91,-2.006 -0.55,-4.376 -2.74,-4.376 l -127.125,-0.365 c 6.193,-8.204 10.382,-12.398 18.213,-12.398 l 194.702,0.547 c 4.01,0 7.65,2.735 8.74,6.564 16.76,61.625 14.21,108.482 14.02,156.251 z m -19.48,-74.935 -5.65,-66.001 c 0,-0.912 -0.91,-1.641 -1.82,-1.641 l -59.19,-0.182 c -3.46,0 -6.56,1.823 -8.2,4.923 -16.57,31.542 -20.03,60.349 -20.03,76.94 v 17.503 c 0,2.553 2,4.558 4.55,4.558 h 14.39 c 2.37,0 4.73,-1.094 6.19,-2.917 l 23.68,-28.26 c 2.73,-3.1 6.55,-5.105 10.74,-4.923 z"
         fill="#f7a58d"
         id="path47" />
      <path
         d="m 1150.99,477.666 c 0,2.735 -2.18,4.741 -4.91,4.741 h -28.96 c -21.68,0 -26.78,10.757 -40.07,37.194 l -42.07,-0.182 c 0,0 0,-3.1 0,-8.387 l 0.18,-73.841 c 0,-36.648 6.55,-59.803 23.86,-96.45 2.55,-5.469 8.19,-8.934 14.2,-8.934 l 62.66,0.183 c 1.45,0 2.55,0.911 2.91,2.188 12.39,47.039 12.39,123.615 12.2,143.488 z m -12.38,-70.194 -5.65,-66.001 c 0,-0.912 -0.91,-1.641 -1.82,-1.641 l -59.19,-0.183 c -3.46,0 -6.56,1.824 -8.2,4.923 -16.57,31.542 -20.03,60.349 -20.03,76.941 v 17.503 c 0,2.552 2,4.558 4.55,4.558 h 14.39 c 2.37,0 4.73,-1.094 6.19,-2.917 l 23.68,-28.261 c 2.73,-3.099 6.56,-5.105 10.75,-4.922 z"
         fill="#f58a6b"
         id="path49" />
      <path
         d="m 1130.6,342.017 -58.83,-0.182 c -2.55,0 -4.92,1.459 -6.2,3.647 -17.12,32.636 -19.85,61.625 -19.85,75.846 v 17.503 c 0,1.277 1.09,2.371 2.37,2.371 h 14.39 c 1.82,0 3.46,-0.73 4.55,-2.006 l 23.68,-28.26 c 3.09,-3.647 7.65,-5.834 12.57,-5.834 h 32.78 z m 0.36,-2.187 c 0.91,0 1.82,0.729 1.82,1.64 l 5.65,66.002 h -35.34 c -4.19,0 -8.01,1.823 -10.74,4.923 l -23.68,28.26 c -1.46,1.823 -3.82,2.917 -6.19,2.917 h -14.39 c -2.55,0 -4.55,-2.006 -4.55,-4.558 v -17.503 c 0,-16.592 3.46,-45.399 20.03,-76.941 1.64,-3.1 4.74,-4.923 8.2,-4.923 z"
         fill="#f7a58d"
         id="path51" />
      <path
         d="m 1035.16,476.208 v 34.823 l -63.569,-0.182 c 0.728,-9.116 2.368,-17.868 5.1,-26.072 1.092,-3.282 3.824,-5.652 7.285,-6.199 14.024,-1.641 31.874,-2.37 51.184,-2.37 z m -128.591,34.641 h -31.508 c -0.547,-7.657 -1.093,-20.056 -1.64,-34.094 7.65,0.364 14.753,1.093 21.128,2.005 3.46,0.547 6.192,2.917 7.285,6.199 2.55,8.022 4.007,16.774 4.735,25.89 z"
         fill="#f6977c"
         id="path53" />
      <path
         d="m 1034.97,546.038 -147.342,-0.365 c -10.017,0 -18.213,-8.204 -18.213,-18.232 v -3.1 c 0,-2.917 2.368,-5.105 5.1,-5.105 l 160.275,0.365 z"
         fill="#f6977c"
         id="path55" />
      <path
         d="m 1062.11,546.038 h -27.14 v -26.437 h 41.71 l -4.55,18.415 c -1.09,4.74 -5.28,8.022 -10.02,8.022 z"
         fill="#f7a58d"
         id="path57" />
      <path
         d="m 1126.95,449.589 c -6.19,0.182 -18.21,1.459 -18.21,5.834 0,4.376 10.56,5.835 19.12,5.835 8.56,0 9.47,-4.741 10.2,-6.746 0.55,-2.006 1.09,-5.105 -11.11,-4.923 z"
         fill="#f6977c"
         id="path59" />
      <path
         d="m 1126.4,454.329 c 2.92,0 6.02,-0.911 7.47,-2.37 -1.09,-0.547 -2.73,-1.094 -5.28,-1.094 -4.74,0 -12.38,0.547 -16.39,2.37 0.54,0.365 2,1.094 4.37,1.094 2.91,0 6.74,0 9.83,0 z"
         fill="#f47b58"
         id="path61" />
      <path
         d="m 1114.2,457.794 c -1.09,0 -1.64,0.182 -1.82,0.364 3.28,1.459 9.29,2.006 12.2,2.006 4.19,0 7.11,0 8.02,-0.912 -0.73,-0.547 -2.37,-1.458 -4.01,-1.458 -2.19,0.182 -12.93,0 -14.39,0 z"
         fill="#f47b58"
         id="path63" />
      <path
         d="m 1034.97,511.214 c 0,5.287 0,8.387 0,8.387 l -160.091,-0.365 c 0,0 -0.182,-3.1 -0.546,-8.387 z"
         fill="#f58a6b"
         id="path65" />
      <g
         opacity="0.2"
         id="g69">
        <path
           d="m 965.944,474.384 v 34.824 l -53.729,-0.182 v -34.824 c 0,-4.194 3.825,-7.475 8.56,-7.475 h 36.791 c 4.554,0.182 8.378,3.646 8.378,7.657 z"
           fill="#f16036"
           id="path67" />
      </g>
      <path
         d="m 894.184,507.932 h -11.292 c -2.914,0 -5.464,-2.37 -5.464,-5.47 v -5.652 c 0,-2.917 2.368,-5.469 5.464,-5.469 h 11.292 c 2.915,0 5.464,2.37 5.464,5.469 v 5.652 c 0,3.1 -2.549,5.47 -5.464,5.47 z"
         fill="#ffffff"
         id="path71" />
      <path
         d="m 1001.1,508.297 h -11.293 c -2.914,0 -5.464,-2.37 -5.464,-5.47 v -5.652 c 0,-2.917 2.368,-5.469 5.464,-5.469 h 11.293 c 2.91,0 5.46,2.37 5.46,5.469 v 5.652 c 0,2.918 -2.36,5.47 -5.46,5.47 z"
         fill="#ffffff"
         id="path73" />
      <path
         d="m 1073.95,411.483 c 0,0.73 -0.54,1.277 -1.09,1.459 -7.1,0.729 -14.57,0.729 -22.22,-0.182 -0.91,-0.183 -1.46,-0.73 -1.46,-1.641 -0.55,-14.586 -0.55,-28.807 0,-42.299 0,-0.912 0.73,-1.459 1.46,-1.641 7.83,-0.912 15.66,-0.912 23.86,0 0.73,0.182 1.27,0.911 1.27,1.641 0.55,13.674 -0.18,27.895 -1.82,42.663 z"
         fill="#f7a58d"
         id="path75" />
      <path
         d="m 1045.72,424.428 c -0.54,0 -1.09,-0.364 -1.27,-0.911 -0.37,-0.729 0,-1.641 0.73,-2.006 l 12.38,-6.016 c 1.82,-0.912 3.1,-2.918 3.1,-4.923 l 0.18,-45.764 c 0,-0.182 -0.18,-0.182 -0.18,-0.182 h -7.65 c -0.91,0 -1.46,-0.729 -1.46,-1.458 0,-0.912 0.73,-1.459 1.46,-1.459 h 7.65 c 1.82,0 3.28,1.459 3.28,3.282 l -0.19,45.763 c 0,3.282 -1.82,6.199 -4.73,7.658 l -12.39,6.016 c -0.54,0 -0.73,0 -0.91,0 z"
         fill="#f69276"
         id="path77" />
      <path
         d="m 962.189,548.197 -51.543,-0.112 0.033,-15.498 51.544,0.112 z"
         fill="#f8b4a0"
         id="path79" />
      <path
         opacity="0.6"
         d="m 1052.63,336.734 c -11.29,25.89 -19.67,49.775 -27.69,83.14 l -148.981,-0.365 c 8.56,-31.359 30.234,-64.725 39.158,-76.94 2.914,-4.011 5.464,-7.476 7.65,-10.575 l 127.133,0.365 c 2.18,0.182 3.64,2.37 2.73,4.375 z"
         fill="url(#paint1_linear_413_1629)"
         id="path81"
         style="fill:url(#paint1_linear_413_1629)" />
      <path
         d="m 811.305,354.535 c 0,0 -4.206,130.858 -0.115,277.968 0,0 12.272,11.631 35.524,3.877 0,0 -0.216,-163.695 6.028,-228.742 0,0 29.28,123.633 66.311,230.681 0,0 24.759,4.738 33.586,-9.262 0,0 -49.949,-173.388 -57.269,-273.113 z"
         fill="url(#paint2_linear_413_1629)"
         id="path83"
         style="fill:url(#paint2_linear_413_1629)" />
      <path
         d="m 811.619,355.944 h 83.75 c 0.646,7.538 1.292,15.508 2.368,23.693 -49.948,0.215 -76.429,-12.493 -86.333,-18.308 0,-3.662 0.215,-5.385 0.215,-5.385 z"
         fill="#402b2b"
         fill-opacity="0.45"
         style="mix-blend-mode:multiply"
         id="path85" />
    </g>
    <path
       d="m 820.021,139.045 h 20.668 l 2.799,-12.493 c 0,0 -8.181,4.739 -10.119,1.508 -1.937,-3.231 -1.507,-1.938 -3.444,-1.508 -1.938,0.431 -1.938,-2.153 -4.306,-0.646 -2.584,1.723 -6.459,9.908 -5.598,13.139 z"
       fill="#6b1912"
       id="path89" />
    <path
       d="m 779.632,295.023 11.778,-28.515 33.118,12.414 c -1.142,9.134 -21.341,26.639 -33.118,39.037 z"
       fill="url(#paint3_linear_413_1629)"
       id="path91"
       style="fill:url(#paint3_linear_413_1629)" />
    <path
       d="m 807.216,211.923 c 0,0 -18.135,32.891 -28.764,81.242 -3.27,14.878 -2.479,22.564 2.48,26.036 6.199,4.339 17.355,0.619 22.934,-11.158 5.681,-13.017 16.182,-41.251 18.538,-54.821 0,0 -4.076,-38.86 -15.188,-41.299 z"
       fill="url(#paint4_linear_413_1629)"
       id="path93"
       style="fill:url(#paint4_linear_413_1629)" />
    <path
       d="m 807.104,211.415 c 0,0 1.077,24.769 4.306,143.88 0,0 29.28,14.861 87.625,4.523 0,0 0.216,-35.755 8.181,-67.417 0,0 14.856,-59.663 7.32,-77.109 0,0 -47.58,-29.509 -107.432,-3.877 z"
       fill="url(#paint5_linear_413_1629)"
       id="path95"
       style="fill:url(#paint5_linear_413_1629)" />
    <path
       d="m 852.315,187.808 -0.431,15.422 c 0,0 3.66,5.385 12.487,6.031 8.827,0.431 13.133,-4.523 13.133,-4.523 l 0.861,-22.961 c -10.98,4.738 -21.744,6.677 -26.05,6.031 z"
       fill="url(#paint6_linear_413_1629)"
       id="path97"
       style="fill:url(#paint6_linear_413_1629)" />
    <path
       d="m 853.177,181.476 -0.861,17.016 c 4.306,0.646 15.07,-1.293 25.835,-6.031 l 0.646,-10.985 z"
       fill="url(#paint7_linear_413_1629)"
       style="mix-blend-mode:multiply;fill:url(#paint7_linear_413_1629)"
       id="path99" />
    <path
       d="m 911.522,248.892 c 0,0 -12.702,28.647 -17.224,41.57 -4.521,12.708 -4.521,63.324 -28.203,73.017 0,0 25.189,-1.508 33.155,-3.662 0,0 0.431,-38.124 8.181,-67.417 0,0 5.383,-30.8 7.536,-44.8 z"
       fill="#ee4d47"
       fill-opacity="0.29"
       style="mix-blend-mode:multiply"
       id="path101" />
    <path
       d="m 894.729,144 c -0.43,0.215 -0.861,7.107 -0.861,7.107 l -1.722,14.431 -7.966,6.247 -4.521,1.938 c 0,0 -6.674,-2.8 -5.813,-5.385 0.861,-2.369 5.167,-36.4 6.028,-36.4 0.861,0 7.751,4.954 7.751,4.954 z"
       fill="#402b2b"
       id="path103" />
    <path
       d="m 831.649,131.075 c -1.938,0 1.076,23.693 1.076,23.693 l 3.445,-9.477 2.368,-11.416 z"
       fill="#402b2b"
       id="path105" />
    <path
       d="m 834.878,135.812 -3.66,30.37 c 0,0 -1.292,25.632 19.807,27.139 21.099,1.293 35.524,-19.6 35.524,-19.6 0,0 2.583,3.015 5.382,-2.154 2.583,-5.169 0.861,-12.062 -2.799,-12.708 -3.875,-0.431 -5.598,1.723 -6.028,4.954 -0.431,3.231 -0.861,5.6 -0.861,5.6 l -3.23,-0.431 2.368,-24.985 c 0,0 -4.951,-9.692 -10.549,-11.631 -5.598,-1.938 -10.549,5.816 -10.549,5.816 0,0 -5.167,1.077 -10.119,0 -4.952,-1.077 -8.181,-2.37 -8.181,-2.37 0,0 -3.015,0.862 -7.105,0 z"
       fill="url(#paint8_linear_413_1629)"
       id="path107"
       style="fill:url(#paint8_linear_413_1629)" />
    <path
       d="m 850.977,311.76 c 0,0 -32.853,-4.959 -32.853,-9.918 0,-4.959 6.818,-16.737 11.777,-30.374 4.959,-13.637 9.299,-35.333 11.158,-39.673 1.86,-4.339 -5.579,8.059 -5.579,8.059 -12.191,15.91 -37.069,48.847 -39.052,53.31 -1.984,4.463 -2.893,15.084 -3.1,19.836 l 8.679,4.959 25.415,-3.099 z"
       fill="#ee4d47"
       fill-opacity="0.29"
       style="mix-blend-mode:multiply"
       id="path109" />
    <path
       d="m 840.38,180.345 c 0,-2.479 2.527,-6.185 6.819,-4.959 4.339,1.24 5.372,4.959 5.579,7.439"
       stroke="#893d43"
       id="path111" />
    <path
       d="m 834.182,216.299 c 0,0 -53.929,69.446 -55.169,80.585 -1.24,11.139 -2.142,22.125 9.129,23.481 11.27,1.357 21.977,-16.39 25.922,-25.433 l 8.96,-22.844 18.596,-45.251 z"
       fill="url(#paint9_linear_413_1629)"
       id="path113"
       style="fill:url(#paint9_linear_413_1629)" />
    <path
       d="m 841.679,231.175 c 0,-6.199 -7.439,-8.678 -13.638,-8.678 l -38.432,53.31 c -7.852,10.951 -21.324,36.201 -7.439,44.632 13.886,8.43 29.341,-13.018 34.714,-24.176 2.975,-6.943 17.77,-46.285 24.795,-65.088 z"
       fill="url(#paint10_linear_413_1629)"
       id="path115"
       style="fill:url(#paint10_linear_413_1629)" />
    <path
       d="m 834.241,217.538 c 0,0 -3.788,-14.722 0.236,-24.301 0,0 2.196,-4.284 4.564,-2.443 2.637,1.698 4.709,-2.174 7.346,-0.477 2.636,1.698 4.746,-0.813 7.359,2.452 0,0 2.973,-0.9 4.679,1.641 1.707,2.541 5.614,8.222 4.765,9.539 -0.849,1.318 -3.731,7.869 -4.475,8.094 -0.743,0.225 -2.104,0.263 -2.718,-2.172 0,0 -0.067,2.454 -1.352,5.214 -1.08,2.822 -4.594,6.257 -4.594,6.257 l -8.992,6.113 z"
       fill="url(#paint11_linear_413_1629)"
       id="path117"
       style="fill:url(#paint11_linear_413_1629)" />
    <path
       d="m 857.051,128.06 v -21.97 c 13.133,0.646 26.697,3.231 33.371,11.416 7.966,9.692 3.445,32.093 3.445,32.093 0,0 -9.689,-1.077 -11.411,-4.308 -1.722,-3.231 -18.085,-7.754 -30.572,-7.108 -12.487,0.646 -18.515,-0.646 -24.759,-6.031 -1.292,-1.077 -2.368,-2.585 -3.229,-4.308 h 33.155 z"
       fill="#402b2b"
       id="path119" />
    <path
       d="m 895.374,141.414 c 0,0 -9.258,-3.016 -24.759,-4.308 -26.051,-10.985 -37.246,-9.046 -37.246,-9.046 0,0 0.215,-8.4 2.583,-14.216 2.369,-5.815 18.301,-14.0001 31.649,-12.708 13.348,1.293 27.127,11.2 29.28,20.677 1.722,7.324 -1.507,19.601 -1.507,19.601 z"
       fill="url(#paint12_linear_413_1629)"
       id="path121"
       style="fill:url(#paint12_linear_413_1629)" />
    <path
       d="m 879.658,138.186 c -2.799,-13.354 -22.821,-20.031 -37.031,-19.816 -13.994,0.215 -23.897,11.846 -25.404,19.816 -0.646,3.231 1.937,3.661 2.799,0.861 0.645,-1.938 1.937,-11.2 14.855,-10.123 12.918,1.077 12.272,12.708 18.731,13.785 6.028,1.077 12.917,-3.231 26.05,-4.523 z"
       fill="url(#paint13_linear_413_1629)"
       id="path123"
       style="fill:url(#paint13_linear_413_1629)" />
    <path
       d="m 835.543,146.1 -0.671,-1.35 c 0.579,-0.288 4.726,-3.07 10.699,-4.595 l 0.862,2.218 c -5.106,0.853 -10.89,3.727 -10.89,3.727 z"
       fill="#402b2b"
       id="path125" />
    <path
       d="m 872.193,151.767 c -2.58,-3.605 -8.734,-7.712 -8.642,-7.907 l 1.701,-1.578 c 0.194,0.092 5.673,4.117 8.365,8.491 z"
       fill="#402b2b"
       id="path127" />
    <path
       d="m 851.241,153.907 c 0,0 -0.646,4.523 -2.368,5.815 -1.722,1.293 -4.737,2.37 -5.167,3.447 -0.431,0.861 0.43,2.584 2.368,3.231 1.938,0.646 2.153,1.292 2.153,1.292 0,0 -3.875,0.431 -5.813,-1.939 -1.938,-2.369 0.215,-4.307 2.153,-5.384 1.938,-1.077 2.799,-1.508 3.66,-2.154 1.077,-0.646 3.014,-4.308 3.014,-4.308 z"
       fill="#d87c60"
       id="path129" />
    <path
       d="m 860.496,156.274 c 0,2.154 1.507,4.092 3.445,4.092 1.938,0 3.445,-1.723 3.445,-4.092 0,-2.154 -1.507,-4.093 -3.445,-4.093 -1.938,0 -3.445,1.723 -3.445,4.093 z"
       fill="#402b2b"
       id="path131" />
    <path
       d="m 836.815,153.474 c 0,2.154 1.507,4.093 3.444,4.093 1.938,0 3.445,-1.723 3.445,-4.093 0,-2.153 -1.507,-4.092 -3.445,-4.092 -1.937,0.215 -3.444,1.939 -3.444,4.092 z"
       fill="#402b2b"
       id="path133" />
    <path
       d="m 825.136,321.68 c -1.653,-2.687 -4.711,-10.167 -3.72,-18.597 2.067,2.893 5.703,10.662 3.72,18.597 z"
       fill="#644545"
       id="path135" />
    <path
       fill-rule="evenodd"
       clip-rule="evenodd"
       d="M 900.111,311.571 C 915.828,288.739 917.98,219.6 917.98,219.6 c -14.461,1.88 -21.368,16.195 -25.805,25.392 -2.168,4.494 -3.747,7.766 -5.329,7.766 l -6.66,42.34 -66.603,11.893 c -0.055,0.077 -0.11,0.154 -0.165,0.23 -3.28,0.086 -14.665,0.728 -22.101,5.463 0,0 -3.852,2.887 -1.638,4.911 1.059,1.157 0.722,2.409 0.384,3.661 -0.337,1.252 -0.674,2.503 0.385,3.66 0.893,0.975 1.033,1.985 1.17,2.978 0.188,1.361 0.372,2.692 2.487,3.862 0,0 -0.386,3.082 2.406,4.336 0.127,0.057 0.261,0.117 0.401,0.18 2.949,1.328 8.702,3.919 9.805,2.908 0.415,-0.38 1.45,-1.131 2.61,-1.974 2.074,-1.507 4.552,-3.306 4.614,-3.8 0.096,-0.771 -0.096,-2.119 -2.6,-2.314 0,0 2.408,-0.48 4.912,-2.212 2.6,-1.539 5.393,-5.583 5.393,-5.583 l 2.534,-5.788 c 61.707,5.26 75.931,-5.938 75.931,-5.938 z"
       fill="url(#paint14_linear_413_1629)"
       id="path137"
       style="fill:url(#paint14_linear_413_1629)" />
    <path
       d="m 882.027,251.263 -6.029,31.662 -2.704,7.969 -52.071,12.189 c 1.447,2.686 4.216,10.166 3.72,18.597 11.571,1.239 43.764,1.363 65.088,-3.1 5.728,-1.1 12.397,-6.819 20.845,-27.686 19.161,-65.909 3.66,-75.601 3.66,-75.601 -21.529,2.8 -32.509,35.97 -32.509,35.97 z"
       fill="url(#paint15_linear_413_1629)"
       id="path139"
       style="fill:url(#paint15_linear_413_1629)" />
    <path
       d="m 744.977,279.527 c 0,0 24.701,25.416 4.34,30.995 -20.362,5.579 -39.627,-10.836 -65.662,-6.387 -44.632,7.626 -117.919,17.544 -157.592,-56.842 -49.59,-92.983 79.827,-130.176 145.053,-130.176 78.247,10e-4 109.1,33.474 116.539,79.346 5.951,36.697 -26.561,71.906 -42.678,83.064 z"
       fill="url(#paint16_linear_413_1629)"
       id="path141"
       style="fill:url(#paint16_linear_413_1629)" />
    <path
       d="m 650.914,228.236 1.194,-25.578 c 4.78,-1.24 8.771,-3.516 11.973,-6.827 3.201,-3.311 5.054,-7.511 5.557,-12.6 0.593,-5.988 -0.022,-10.785 -1.846,-14.392 -1.813,-3.706 -4.339,-5.72 -7.577,-6.04 -2.846,-0.282 -5.153,0.498 -6.921,2.338 -1.67,1.85 -3.114,4.428 -4.333,7.734 l -2.625,6.995 c -1.219,3.306 -2.982,5.6 -5.289,6.884 -2.199,1.193 -4.462,1.523 -6.787,0.991 -2.228,-0.523 -4.087,-1.765 -5.577,-3.726 -1.481,-2.062 -2.064,-4.689 -1.747,-7.882 0.395,-3.992 2.158,-7.294 5.291,-9.907 3.23,-2.602 7.182,-4.479 11.854,-5.628 4.672,-1.15 9.462,-1.483 14.369,-0.997 9.912,0.981 17.452,3.894 22.622,8.738 5.267,4.855 7.476,11.573 6.627,20.156 -0.583,5.887 -2.5,10.736 -5.751,14.546 -3.251,3.81 -7.262,6.789 -12.033,8.937 -4.663,2.058 -9.468,3.547 -14.415,4.468 l -1.936,12.053 z m -3.408,35.941 c -3.533,-0.35 -6.452,-1.898 -8.756,-4.646 -2.207,-2.737 -3.132,-5.903 -2.777,-9.495 0.346,-3.493 1.869,-6.365 4.569,-8.617 2.809,-2.343 5.979,-3.339 9.512,-2.989 3.631,0.359 6.496,1.953 8.595,4.78 2.206,2.738 3.137,5.853 2.791,9.346 -0.356,3.593 -1.884,6.515 -4.584,8.767 -2.602,2.262 -5.719,3.213 -9.35,2.854 z"
       fill="#ffffff"
       id="path143" />
  </g>
  <defs
     id="defs507">
    <filter
       id="filter0_d_413_1629"
       x="0"
       y="668"
       width="630"
       height="330"
       filterUnits="userSpaceOnUse"
       color-interpolation-filters="sRGB">
      <feFlood
         flood-opacity="0"
         result="BackgroundImageFix"
         id="feFlood257" />
      <feColorMatrix
         in="SourceAlpha"
         type="matrix"
         values="0 0 0 0 0 0 0 0 0 0 0 0 0 0 0 0 0 0 127 0"
         result="hardAlpha"
         id="feColorMatrix259" />
      <feOffset
         dy="20"
         id="feOffset261" />
      <feGaussianBlur
         stdDeviation="20"
         id="feGaussianBlur263" />
      <feColorMatrix
         type="matrix"
         values="0 0 0 0 0.933333 0 0 0 0 0.301961 0 0 0 0 0.278431 0 0 0 0.1 0"
         id="feColorMatrix265" />
      <feBlend
         mode="multiply"
         in2="BackgroundImageFix"
         result="effect1_dropShadow_413_1629"
         id="feBlend267" />
      <feBlend
         mode="normal"
         in="SourceGraphic"
         in2="effect1_dropShadow_413_1629"
         result="shape"
         id="feBlend269" />
    </filter>
    <filter
       id="filter1_d_413_1629"
       x="0"
       y="668"
       width="630"
       height="170"
       filterUnits="userSpaceOnUse"
       color-interpolation-filters="sRGB">
      <feFlood
         flood-opacity="0"
         result="BackgroundImageFix"
         id="feFlood272" />
      <feColorMatrix
         in="SourceAlpha"
         type="matrix"
         values="0 0 0 0 0 0 0 0 0 0 0 0 0 0 0 0 0 0 127 0"
         result="hardAlpha"
         id="feColorMatrix274" />
      <feOffset
         dy="20"
         id="feOffset276" />
      <feGaussianBlur
         stdDeviation="20"
         id="feGaussianBlur278" />
      <feColorMatrix
         type="matrix"
         values="0 0 0 0 0.933333 0 0 0 0 0.301961 0 0 0 0 0.278431 0 0 0 0.1 0"
         id="feColorMatrix280" />
      <feBlend
         mode="multiply"
         in2="BackgroundImageFix"
         result="effect1_dropShadow_413_1629"
         id="feBlend282" />
      <feBlend
         mode="normal"
         in="SourceGraphic"
         in2="effect1_dropShadow_413_1629"
         result="shape"
         id="feBlend284" />
    </filter>
    <filter
       id="filter2_d_413_1629"
       x="570"
       y="668.16199"
       width="630"
       height="170"
       filterUnits="userSpaceOnUse"
       color-interpolation-filters="sRGB">
      <feFlood
         flood-opacity="0"
         result="BackgroundImageFix"
         id="feFlood287" />
      <feColorMatrix
         in="SourceAlpha"
         type="matrix"
         values="0 0 0 0 0 0 0 0 0 0 0 0 0 0 0 0 0 0 127 0"
         result="hardAlpha"
         id="feColorMatrix289" />
      <feOffset
         dy="20"
         id="feOffset291" />
      <feGaussianBlur
         stdDeviation="20"
         id="feGaussianBlur293" />
      <feColorMatrix
         type="matrix"
         values="0 0 0 0 0.933333 0 0 0 0 0.301961 0 0 0 0 0.278431 0 0 0 0.1 0"
         id="feColorMatrix295" />
      <feBlend
         mode="multiply"
         in2="BackgroundImageFix"
         result="effect1_dropShadow_413_1629"
         id="feBlend297" />
      <feBlend
         mode="normal"
         in="SourceGraphic"
         in2="effect1_dropShadow_413_1629"
         result="shape"
         id="feBlend299" />
    </filter>
    <filter
       id="filter3_d_413_1629"
       x="0"
       y="968.16199"
       width="630"
       height="170"
       filterUnits="userSpaceOnUse"
       color-interpolation-filters="sRGB">
      <feFlood
         flood-opacity="0"
         result="BackgroundImageFix"
         id="feFlood302" />
      <feColorMatrix
         in="SourceAlpha"
         type="matrix"
         values="0 0 0 0 0 0 0 0 0 0 0 0 0 0 0 0 0 0 127 0"
         result="hardAlpha"
         id="feColorMatrix304" />
      <feOffset
         dy="20"
         id="feOffset306" />
      <feGaussianBlur
         stdDeviation="20"
         id="feGaussianBlur308" />
      <feColorMatrix
         type="matrix"
         values="0 0 0 0 0.933333 0 0 0 0 0.301961 0 0 0 0 0.278431 0 0 0 0.1 0"
         id="feColorMatrix310" />
      <feBlend
         mode="multiply"
         in2="BackgroundImageFix"
         result="effect1_dropShadow_413_1629"
         id="feBlend312" />
      <feBlend
         mode="normal"
         in="SourceGraphic"
         in2="effect1_dropShadow_413_1629"
         result="shape"
         id="feBlend314" />
    </filter>
    <filter
       id="filter4_d_413_1629"
       x="570"
       y="768.16199"
       width="630"
       height="170"
       filterUnits="userSpaceOnUse"
       color-interpolation-filters="sRGB">
      <feFlood
         flood-opacity="0"
         result="BackgroundImageFix"
         id="feFlood317" />
      <feColorMatrix
         in="SourceAlpha"
         type="matrix"
         values="0 0 0 0 0 0 0 0 0 0 0 0 0 0 0 0 0 0 127 0"
         result="hardAlpha"
         id="feColorMatrix319" />
      <feOffset
         dy="20"
         id="feOffset321" />
      <feGaussianBlur
         stdDeviation="20"
         id="feGaussianBlur323" />
      <feColorMatrix
         type="matrix"
         values="0 0 0 0 0.933333 0 0 0 0 0.301961 0 0 0 0 0.278431 0 0 0 0.1 0"
         id="feColorMatrix325" />
      <feBlend
         mode="multiply"
         in2="BackgroundImageFix"
         result="effect1_dropShadow_413_1629"
         id="feBlend327" />
      <feBlend
         mode="normal"
         in="SourceGraphic"
         in2="effect1_dropShadow_413_1629"
         result="shape"
         id="feBlend329" />
    </filter>
    <filter
       id="filter5_d_413_1629"
       x="570"
       y="868.16199"
       width="630"
       height="170"
       filterUnits="userSpaceOnUse"
       color-interpolation-filters="sRGB">
      <feFlood
         flood-opacity="0"
         result="BackgroundImageFix"
         id="feFlood332" />
      <feColorMatrix
         in="SourceAlpha"
         type="matrix"
         values="0 0 0 0 0 0 0 0 0 0 0 0 0 0 0 0 0 0 127 0"
         result="hardAlpha"
         id="feColorMatrix334" />
      <feOffset
         dy="20"
         id="feOffset336" />
      <feGaussianBlur
         stdDeviation="20"
         id="feGaussianBlur338" />
      <feColorMatrix
         type="matrix"
         values="0 0 0 0 0.933333 0 0 0 0 0.301961 0 0 0 0 0.278431 0 0 0 0.1 0"
         id="feColorMatrix340" />
      <feBlend
         mode="multiply"
         in2="BackgroundImageFix"
         result="effect1_dropShadow_413_1629"
         id="feBlend342" />
      <feBlend
         mode="normal"
         in="SourceGraphic"
         in2="effect1_dropShadow_413_1629"
         result="shape"
         id="feBlend344" />
    </filter>
    <filter
       id="filter6_d_413_1629"
       x="0"
       y="1068.16"
       width="630"
       height="170"
       filterUnits="userSpaceOnUse"
       color-interpolation-filters="sRGB">
      <feFlood
         flood-opacity="0"
         result="BackgroundImageFix"
         id="feFlood347" />
      <feColorMatrix
         in="SourceAlpha"
         type="matrix"
         values="0 0 0 0 0 0 0 0 0 0 0 0 0 0 0 0 0 0 127 0"
         result="hardAlpha"
         id="feColorMatrix349" />
      <feOffset
         dy="20"
         id="feOffset351" />
      <feGaussianBlur
         stdDeviation="20"
         id="feGaussianBlur353" />
      <feColorMatrix
         type="matrix"
         values="0 0 0 0 0.933333 0 0 0 0 0.301961 0 0 0 0 0.278431 0 0 0 0.1 0"
         id="feColorMatrix355" />
      <feBlend
         mode="multiply"
         in2="BackgroundImageFix"
         result="effect1_dropShadow_413_1629"
         id="feBlend357" />
      <feBlend
         mode="normal"
         in="SourceGraphic"
         in2="effect1_dropShadow_413_1629"
         result="shape"
         id="feBlend359" />
    </filter>
    <filter
       id="filter7_d_413_1629"
       x="570"
       y="968.16199"
       width="630"
       height="170"
       filterUnits="userSpaceOnUse"
       color-interpolation-filters="sRGB">
      <feFlood
         flood-opacity="0"
         result="BackgroundImageFix"
         id="feFlood362" />
      <feColorMatrix
         in="SourceAlpha"
         type="matrix"
         values="0 0 0 0 0 0 0 0 0 0 0 0 0 0 0 0 0 0 127 0"
         result="hardAlpha"
         id="feColorMatrix364" />
      <feOffset
         dy="20"
         id="feOffset366" />
      <feGaussianBlur
         stdDeviation="20"
         id="feGaussianBlur368" />
      <feColorMatrix
         type="matrix"
         values="0 0 0 0 0.933333 0 0 0 0 0.301961 0 0 0 0 0.278431 0 0 0 0.1 0"
         id="feColorMatrix370" />
      <feBlend
         mode="multiply"
         in2="BackgroundImageFix"
         result="effect1_dropShadow_413_1629"
         id="feBlend372" />
      <feBlend
         mode="normal"
         in="SourceGraphic"
         in2="effect1_dropShadow_413_1629"
         result="shape"
         id="feBlend374" />
    </filter>
    <filter
       id="filter8_d_413_1629"
       x="570"
       y="1068.16"
       width="630"
       height="170"
       filterUnits="userSpaceOnUse"
       color-interpolation-filters="sRGB">
      <feFlood
         flood-opacity="0"
         result="BackgroundImageFix"
         id="feFlood377" />
      <feColorMatrix
         in="SourceAlpha"
         type="matrix"
         values="0 0 0 0 0 0 0 0 0 0 0 0 0 0 0 0 0 0 127 0"
         result="hardAlpha"
         id="feColorMatrix379" />
      <feOffset
         dy="20"
         id="feOffset381" />
      <feGaussianBlur
         stdDeviation="20"
         id="feGaussianBlur383" />
      <feColorMatrix
         type="matrix"
         values="0 0 0 0 0.933333 0 0 0 0 0.301961 0 0 0 0 0.278431 0 0 0 0.1 0"
         id="feColorMatrix385" />
      <feBlend
         mode="multiply"
         in2="BackgroundImageFix"
         result="effect1_dropShadow_413_1629"
         id="feBlend387" />
      <feBlend
         mode="normal"
         in="SourceGraphic"
         in2="effect1_dropShadow_413_1629"
         result="shape"
         id="feBlend389" />
    </filter>
    <filter
       id="filter9_d_413_1629"
       x="0"
       y="1168.16"
       width="630"
       height="170"
       filterUnits="userSpaceOnUse"
       color-interpolation-filters="sRGB">
      <feFlood
         flood-opacity="0"
         result="BackgroundImageFix"
         id="feFlood392" />
      <feColorMatrix
         in="SourceAlpha"
         type="matrix"
         values="0 0 0 0 0 0 0 0 0 0 0 0 0 0 0 0 0 0 127 0"
         result="hardAlpha"
         id="feColorMatrix394" />
      <feOffset
         dy="20"
         id="feOffset396" />
      <feGaussianBlur
         stdDeviation="20"
         id="feGaussianBlur398" />
      <feColorMatrix
         type="matrix"
         values="0 0 0 0 0.933333 0 0 0 0 0.301961 0 0 0 0 0.278431 0 0 0 0.1 0"
         id="feColorMatrix400" />
      <feBlend
         mode="multiply"
         in2="BackgroundImageFix"
         result="effect1_dropShadow_413_1629"
         id="feBlend402" />
      <feBlend
         mode="normal"
         in="SourceGraphic"
         in2="effect1_dropShadow_413_1629"
         result="shape"
         id="feBlend404" />
    </filter>
    <filter
       id="filter10_d_413_1629"
       x="570"
       y="1168.16"
       width="630"
       height="170"
       filterUnits="userSpaceOnUse"
       color-interpolation-filters="sRGB">
      <feFlood
         flood-opacity="0"
         result="BackgroundImageFix"
         id="feFlood407" />
      <feColorMatrix
         in="SourceAlpha"
         type="matrix"
         values="0 0 0 0 0 0 0 0 0 0 0 0 0 0 0 0 0 0 127 0"
         result="hardAlpha"
         id="feColorMatrix409" />
      <feOffset
         dy="20"
         id="feOffset411" />
      <feGaussianBlur
         stdDeviation="20"
         id="feGaussianBlur413" />
      <feColorMatrix
         type="matrix"
         values="0 0 0 0 0.933333 0 0 0 0 0.301961 0 0 0 0 0.278431 0 0 0 0.1 0"
         id="feColorMatrix415" />
      <feBlend
         mode="multiply"
         in2="BackgroundImageFix"
         result="effect1_dropShadow_413_1629"
         id="feBlend417" />
      <feBlend
         mode="normal"
         in="SourceGraphic"
         in2="effect1_dropShadow_413_1629"
         result="shape"
         id="feBlend419" />
    </filter>
    <linearGradient
       id="paint0_linear_413_1629"
       x1="916.68597"
       y1="306.737"
       x2="916.68597"
       y2="610.40002"
       gradientUnits="userSpaceOnUse">
      <stop
         stop-color="#F37753"
         id="stop422" />
      <stop
         offset="1"
         stop-color="white"
         stop-opacity="0"
         id="stop424" />
    </linearGradient>
    <linearGradient
       id="paint1_linear_413_1629"
       x1="983.12799"
       y1="304.103"
       x2="911.75598"
       y2="475.01999"
       gradientUnits="userSpaceOnUse">
      <stop
         stop-color="#F7A58D"
         id="stop427" />
      <stop
         offset="0.926161"
         stop-color="white"
         id="stop429" />
    </linearGradient>
    <linearGradient
       id="paint2_linear_413_1629"
       x1="881.05798"
       y1="275.85999"
       x2="881.05798"
       y2="639.091"
       gradientUnits="userSpaceOnUse">
      <stop
         stop-color="#822626"
         id="stop432" />
      <stop
         offset="0.943497"
         stop-color="#402B2B"
         id="stop434" />
    </linearGradient>
    <linearGradient
       id="paint3_linear_413_1629"
       x1="798.00098"
       y1="270.358"
       x2="798.00098"
       y2="326.99701"
       gradientUnits="userSpaceOnUse">
      <stop
         stop-color="#FFB3B6"
         id="stop437" />
      <stop
         offset="1"
         stop-color="#FFC8C1"
         id="stop439" />
    </linearGradient>
    <linearGradient
       id="paint4_linear_413_1629"
       x1="822.46301"
       y1="216.92"
       x2="822.46301"
       y2="328.49899"
       gradientUnits="userSpaceOnUse">
      <stop
         stop-color="#F4A984"
         id="stop442" />
      <stop
         offset="1"
         stop-color="#EE4D47"
         id="stop444" />
    </linearGradient>
    <linearGradient
       id="paint5_linear_413_1629"
       x1="861.88702"
       y1="139.058"
       x2="861.88702"
       y2="357.89401"
       gradientUnits="userSpaceOnUse">
      <stop
         stop-color="#F4A984"
         id="stop447" />
      <stop
         offset="1"
         stop-color="#EE4D47"
         id="stop449" />
    </linearGradient>
    <linearGradient
       id="paint6_linear_413_1629"
       x1="873.94702"
       y1="202.119"
       x2="852.15997"
       y2="211.51601"
       gradientUnits="userSpaceOnUse">
      <stop
         stop-color="#FFB3B6"
         id="stop452" />
      <stop
         offset="1"
         stop-color="#FFC8C1"
         id="stop454" />
    </linearGradient>
    <linearGradient
       id="paint7_linear_413_1629"
       x1="874.37903"
       y1="191.313"
       x2="852.46899"
       y2="200.591"
       gradientUnits="userSpaceOnUse">
      <stop
         stop-color="#FFB3B6"
         stop-opacity="0.31"
         id="stop457" />
      <stop
         offset="1"
         stop-color="#FFC8C1"
         id="stop459" />
    </linearGradient>
    <linearGradient
       id="paint8_linear_413_1629"
       x1="828.41199"
       y1="185.94701"
       x2="833.07202"
       y2="144.304"
       gradientUnits="userSpaceOnUse">
      <stop
         stop-color="#FFB3B6"
         id="stop462" />
      <stop
         offset="1"
         stop-color="#FFC8C1"
         id="stop464" />
    </linearGradient>
    <linearGradient
       id="paint9_linear_413_1629"
       x1="817.65698"
       y1="191.50301"
       x2="817.65698"
       y2="318.367"
       gradientUnits="userSpaceOnUse">
      <stop
         stop-color="#FFB3B6"
         id="stop467" />
      <stop
         offset="1"
         stop-color="#FFC8C1"
         id="stop469" />
    </linearGradient>
    <linearGradient
       id="paint10_linear_413_1629"
       x1="790.84802"
       y1="248.532"
       x2="837.28998"
       y2="316.75299"
       gradientUnits="userSpaceOnUse">
      <stop
         stop-color="#F4A984"
         id="stop472" />
      <stop
         offset="0.91698"
         stop-color="#EE4D47"
         id="stop474" />
    </linearGradient>
    <linearGradient
       id="paint11_linear_413_1629"
       x1="844.5"
       y1="215"
       x2="862"
       y2="185"
       gradientUnits="userSpaceOnUse">
      <stop
         stop-color="#FFB3B6"
         id="stop477" />
      <stop
         offset="1"
         stop-color="#FFC8C1"
         id="stop479" />
    </linearGradient>
    <linearGradient
       id="paint12_linear_413_1629"
       x1="865.37799"
       y1="79.297897"
       x2="865.37799"
       y2="141.924"
       gradientUnits="userSpaceOnUse">
      <stop
         stop-color="#F4A984"
         id="stop482" />
      <stop
         offset="1"
         stop-color="#EE4D47"
         id="stop484" />
    </linearGradient>
    <linearGradient
       id="paint13_linear_413_1629"
       x1="867.01501"
       y1="112.164"
       x2="867.01501"
       y2="177.27"
       gradientUnits="userSpaceOnUse">
      <stop
         stop-color="#F4A984"
         id="stop487" />
      <stop
         offset="1"
         stop-color="#EE4D47"
         id="stop489" />
    </linearGradient>
    <linearGradient
       id="paint14_linear_413_1629"
       x1="896.77698"
       y1="279.577"
       x2="785.16602"
       y2="316.78"
       gradientUnits="userSpaceOnUse">
      <stop
         stop-color="#FFB3B6"
         id="stop492" />
      <stop
         offset="1"
         stop-color="#FFC8C1"
         id="stop494" />
    </linearGradient>
    <linearGradient
       id="paint15_linear_413_1629"
       x1="863.995"
       y1="254.112"
       x2="911.10699"
       y2="325.39899"
       gradientUnits="userSpaceOnUse">
      <stop
         stop-color="#F4A984"
         id="stop497" />
      <stop
         offset="1"
         stop-color="#EE4D47"
         id="stop499" />
    </linearGradient>
    <linearGradient
       id="paint16_linear_413_1629"
       x1="554.67297"
       y1="-5.6198001"
       x2="783.33398"
       y2="327.785"
       gradientUnits="userSpaceOnUse">
      <stop
         stop-color="#F4A984"
         id="stop502" />
      <stop
         offset="1"
         stop-color="#EE4D47"
         id="stop504" />
    </linearGradient>
  </defs>
</svg>
