<?xml version="1.0" encoding="UTF-8" standalone="no"?>
<svg
   width="1400"
   height="920"
   viewBox="0 0 1400 920"
   fill="none"
   version="1.1"
   id="svg205"
   sodipodi:docname="footerbg.svg"
   inkscape:version="1.1.1 (eb90963e84, 2021-10-02)"
   xmlns:inkscape="http://www.inkscape.org/namespaces/inkscape"
   xmlns:sodipodi="http://sodipodi.sourceforge.net/DTD/sodipodi-0.dtd"
   xmlns="http://www.w3.org/2000/svg"
   xmlns:svg="http://www.w3.org/2000/svg">
  <sodipodi:namedview
     id="namedview207"
     pagecolor="#ffffff"
     bordercolor="#666666"
     borderopacity="1.0"
     inkscape:pageshadow="2"
     inkscape:pageopacity="0.0"
     inkscape:pagecheckerboard="0"
     showgrid="false"
     inkscape:zoom="0.64869361"
     inkscape:cx="369.97435"
     inkscape:cy="437.03221"
     inkscape:window-width="1920"
     inkscape:window-height="1016"
     inkscape:window-x="0"
     inkscape:window-y="27"
     inkscape:window-maximized="1"
     inkscape:current-layer="svg205" />
  <mask
     id="mask0_521_8"
     style="mask-type:alpha"
     maskUnits="userSpaceOnUse"
     x="0"
     y="170"
     width="1400"
     height="660">
    <path
       d="M1300 170H0V830H1400V270C1400 214.772 1355.23 170 1300 170Z"
       fill="#0F264C"
       id="path30" />
  </mask>
  <g
     id="g4056"
     clip-path="url(#clipPath4060)"
     transform="translate(0,90)">
    <path
       d="M 1300,170 H 0 V 830 H 1400 V 270 c 0,-55.228 -44.77,-100 -100,-100 z"
       fill="#0f264c"
       id="path2" />
    <g
       mask="url(#mask0_521_8)"
       id="g35">
      <path
         opacity="0.2"
         d="M -216,486.609 C -166.999,422.887 -37.2115,298.63 89.9269,311.375 248.85,327.305 -53.1039,626 89.9269,626 232.958,626 300.5,259.601 403.8,259.601 c 103.3,0 -115.219,270.817 0,286.747 115.219,15.93 210.573,-382.33 337.712,-386.312 C 868.65,156.053 610.4,486.609 817,486.609"
         stroke="url(#paint0_linear_521_8)"
         stroke-width="2"
         id="path33"
         style="stroke:url(#paint0_linear_521_8)" />
    </g>
    <path
       d="m 379.072,166.983 c -1.932,-8.849 -5.121,-17.217 -9.372,-24.912 -0.58,-1.058 -1.257,-2.212 -1.933,-3.27 -4.928,-8.176 -11.015,-15.486 -18.068,-21.834 -0.87,-0.866 -1.836,-1.636 -2.802,-2.405 -7.537,-6.252 -16.137,-11.35 -25.412,-15.0048 -1.16,-0.481 -2.319,-0.8657 -3.479,-1.2504 -9.276,-3.2703 -19.324,-5.0978 -29.663,-5.2902 -0.58,0 -1.256,0 -1.836,0 -0.58,0 -1.256,0 -1.836,0 -10.435,0.1924 -20.387,2.0199 -29.663,5.2902 -1.16,0.3847 -2.319,0.8656 -3.479,1.2504 -9.275,3.6548 -17.875,8.7528 -25.411,15.0048 -0.967,0.769 -1.933,1.635 -2.802,2.405 -7.054,6.348 -13.238,13.658 -18.069,21.834 -0.676,1.058 -1.256,2.212 -1.932,3.27 -4.252,7.695 -7.44,16.063 -9.373,24.912 -0.29,1.25 -0.483,2.5 -0.773,3.751 -0.966,5.386 -1.449,10.869 -1.449,16.447 h 189.478 c 0,-5.578 -0.483,-11.157 -1.45,-16.447 -0.193,-1.251 -0.386,-2.501 -0.676,-3.751 z"
       fill="#0f264c"
       id="path37" />
    <path
       d="m 14.627,173.478 c 0,19.505 11.23,35.264 25.0417,35.264 h 25.0417 c 13.8116,0 24.9126,-15.888 24.9126,-35.264 0,-19.505 -11.2301,-35.264 -25.0417,-35.264 -0.2582,0 -0.3873,0 -0.6454,0 H 39.6687 c -13.9408,0 -25.0417,15.888 -25.0417,35.264 z"
       fill="#402b2b"
       id="path39" />
    <path
       d="m 210.828,173.09 c 0,19.505 11.23,35.264 25.042,35.264 h 25.042 c 13.811,0 24.912,-15.888 24.912,-35.264 0,-19.505 -11.23,-35.264 -25.042,-35.264 -0.258,0 -0.387,0 -0.645,0 H 235.87 c -13.941,0 -25.042,15.759 -25.042,35.264 z"
       fill="#f48767"
       id="path41" />
    <path
       d="m 12.9492,170.12 100.8118,-0.259 -11.617,-6.846 -76.2867,0.129 z"
       fill="#402b2b"
       id="path43" />
    <path
       d="m -82.1836,112.638 0.1291,64.715 81.837306,-0.129 26.074294,-14.079 76.2869,-0.13 23.493,13.951 166.514,-0.388 c 2.711,0 4.905,-2.195 4.905,-4.908 l -0.129,-59.807 z"
       fill="#f36f49"
       id="path45" />
    <path
       d="M 96.2075,127.363 226.837,127.105 226.579,8.65453 C 226.579,3.87517 222.707,0 217.802,0 L 95.8203,0.25836 Z"
       fill="#f48767"
       id="path47" />
    <path
       d="M -107.483,127.88 96.0775,127.493 95.8194,0.387695 -99.0928,0.775195 c -4.7762,0 -8.6482,3.875145 -8.6482,8.783675 z"
       fill="#f06a5b"
       id="path49" />
    <path
       d="m 194.307,173.09 c 0,19.505 -11.101,35.264 -24.913,35.264 H 144.482 V 196.47 c -9.165,0 -16.652,-10.463 -16.652,-23.38 0,-12.917 7.358,-23.38 16.522,-23.38 v -11.884 h 24.913 c 13.812,0.129 24.913,15.888 25.042,35.264 z"
       fill="#f48767"
       id="path51" />
    <path
       d="m 123.83,173.349 c 0,16.017 9.165,28.935 20.524,28.805 11.359,0 20.395,-12.917 20.395,-28.934 0,-16.017 -9.165,-28.935 -20.524,-28.805 -11.23,0 -20.395,12.917 -20.395,28.934 z"
       fill="#f48767"
       id="path53" />
    <path
       d="m 144.351,192.337 c 7.487,0 13.425,-8.526 13.425,-19.118 0,-10.592 -6.067,-18.988 -13.554,-18.988 -7.486,0 -13.424,8.525 -13.424,19.117 0,10.592 6.067,18.989 13.553,18.989 z m 0,-30.356 c 4.389,0 8.003,5.038 8.003,11.238 0,6.2 -3.614,11.367 -8.003,11.367 -4.388,0 -8.003,-5.037 -8.003,-11.238 0,-6.329 3.486,-11.367 8.003,-11.367 z"
       fill="#f7a58d"
       id="path55" />
    <path
       d="m 144.352,208.483 c 13.812,0 24.913,-15.888 24.913,-35.264 0,-19.375 -11.23,-35.263 -25.042,-35.263 -13.811,0 -24.912,15.888 -24.912,35.263 0,19.376 11.359,35.394 25.041,35.264 z m -0.129,-64.069 c 11.359,0 20.524,12.917 20.524,28.805 0,16.018 -9.036,28.935 -20.395,28.935 -11.359,0 -20.524,-12.917 -20.524,-28.805 0,-16.018 9.165,-28.935 20.395,-28.935 z"
       fill="#f7a58d"
       id="path57" />
    <path
       d="m 140.867,173.22 c 0,-2.713 1.549,-4.78 3.356,-4.78 1.807,0 3.356,2.196 3.485,4.78 0,2.712 -1.548,4.779 -3.356,4.779 -1.936,0.129 -3.485,-2.067 -3.485,-4.779 z"
       fill="#f48766"
       id="path59" />
    <path
       d="m 313.319,76.5993 c 0,0.5167 0.388,0.9042 0.775,1.0333 1.033,0.2584 4.905,0.2584 6.067,-0.1291 0.516,-0.1292 1.032,-0.5167 1.032,-1.1626 0.388,-10.3337 0.388,-20.4091 0,-29.9678 0,-0.6459 -0.516,-1.0334 -1.032,-1.1626 -1.291,-0.3875 -5.809,-0.6459 -7.229,-0.1292 -0.516,0.1292 -0.903,0.6459 -0.903,1.1626 -0.259,9.8171 0.129,19.8925 1.29,30.3554 z"
       fill="#f69276"
       id="path61" />
    <path
       d="m 306.996,85.7701 c 0.129,0 0.258,0 0.516,-0.1291 l 8.778,-4.3919 c 2.065,-1.0334 3.356,-3.1001 3.356,-5.4252 l -0.129,-32.4222 c 0,-1.2917 -1.033,-2.325 -2.324,-2.325 h -24.138 c -0.645,0 -1.033,0.5166 -1.033,1.0333 0,0.6459 0.517,1.0334 1.033,1.0334 h 24.138 c 0.129,0 0.129,0.1292 0.129,0.1292 l 0.129,32.4221 c 0,1.5501 -0.903,2.8418 -2.194,3.4877 l -8.778,4.3918 c -0.516,0.2584 -0.774,0.9042 -0.516,1.4209 0.258,0.6459 0.646,0.775 1.033,0.775 z"
       fill="#f69276"
       id="path63" />
    <path
       d="m 113.761,127.105 c 0,0 3.356,0 8.52,0 h 20.524 c 15.36,0 18.974,7.621 28.397,26.351 l 29.818,-0.13 c 0,0 0,-2.195 0,-5.941 l 113.849,-0.259 c 0.517,-9.429 1.549,-28.547 1.549,-46.631 0,-0.6456 0,-1.1623 0,-1.8082 0,-5.1668 -0.903,-10.8504 -2.452,-16.534 -6.067,-22.2175 -21.428,-45.856 -27.753,-54.5105 -2.065,-2.8418 -3.872,-5.296 -5.421,-7.4919 -4.389,-5.8128 -7.358,-8.7837 -12.908,-8.7837 l -137.988,0.3875 c -2.839,0 -5.421,1.9376 -6.195,4.6502 -11.876,43.6601 -10.069,76.8572 -9.94,110.7006 z M 230.063,27.1256 c -0.129,-0.6458 0.387,-1.1625 1.033,-1.1625 l 41.951,-0.1292 c 2.453,0 4.905,1.2918 6.454,3.4877 16.393,22.3467 22.977,42.7558 25.429,54.5105 l 2.582,12.4005 c 0.387,1.8084 -0.775,3.2293 -2.582,3.2293 h -10.197 c -1.678,0 -3.485,-0.7751 -4.776,-2.0668 L 269.046,77.3735 c -2.324,-2.196 -5.422,-3.4876 -8.391,-3.4876 h -25.041 z"
       fill="#f36f49"
       id="path65" />
    <path
       d="m 208.376,82.541 c 0.904,4.1335 1.936,8.3962 2.84,12.9173 0.645,3.1001 3.356,5.2957 6.454,5.4247 40.789,1.421 74.609,1.551 98.747,-0.258 0,-0.6457 0,-1.1624 0,-1.8083 0,-5.1669 -0.904,-10.8504 -2.453,-16.534 z"
       fill="#f6977c"
       id="path67" />
    <path
       d="m 132.993,26.0926 41.952,-0.1292 c 2.452,0 4.647,1.2917 5.808,3.4876 11.747,22.3468 14.199,42.7559 14.199,54.5106 v 12.4005 c 0,1.8084 -1.42,3.2293 -3.227,3.2293 h -10.197 c -1.678,0 -3.356,-0.775 -4.389,-2.0668 L 160.359,77.503 c -1.937,-2.1959 -4.647,-3.6168 -7.616,-3.4876 h -25.042 l 4.002,-46.7603 c 0,-0.6459 0.516,-1.1625 1.29,-1.1625 z"
       fill="#f36f49"
       id="path69" />
    <path
       d="m 113.761,127.105 c 0,0 3.356,0 8.52,0 h 20.524 c 15.36,0 18.974,7.621 28.397,26.351 l 29.818,-0.13 c 0,0 0,-2.195 0,-5.941 l 113.849,-0.259 c 0.517,-9.429 1.549,-28.547 1.549,-46.631 -24.138,1.809 -58.086,1.809 -98.747,0.259 -3.097,-0.13 -5.808,-2.3255 -6.454,-5.4256 -0.903,-4.521 -1.936,-8.9129 -2.839,-12.9172 -5.551,-23.6384 -11.618,-40.56 -19.621,-58.9024 -0.645,-1.4208 0.388,-3.1001 1.937,-3.1001 l 90.098,-0.2583 c -4.389,-5.8128 -7.358,-8.7837 -12.908,-8.7837 l -137.988,0.3875 c -2.839,0 -5.421,1.9376 -6.195,4.6502 -11.876,43.6601 -10.069,76.8572 -9.94,110.7006 z m 13.812,-53.09 4.001,-46.7602 c 0,-0.6458 0.646,-1.1625 1.291,-1.1625 l 41.952,-0.1292 c 2.452,0 4.646,1.2917 5.808,3.4877 11.747,22.3467 14.199,42.7558 14.199,54.5104 v 12.4005 c 0,1.8085 -1.42,3.2293 -3.227,3.2293 H 181.4 c -1.678,0 -3.356,-0.775 -4.389,-2.0667 L 160.23,77.5026 c -1.936,-2.1959 -4.646,-3.6167 -7.615,-3.4876 z"
       fill="#f7a58d"
       id="path71" />
    <path
       d="m 118.794,123.747 c 0,1.937 1.549,3.358 3.485,3.358 h 20.524 c 15.361,0 18.975,7.621 28.398,26.351 l 29.818,-0.129 c 0,0 0,-2.196 0,-5.942 l -0.13,-52.3145 c 0,-25.9636 -4.646,-42.3684 -16.909,-68.3319 -1.807,-3.8752 -5.809,-6.3294 -10.068,-6.3294 l -44.404,0.1291 c -1.033,0 -1.807,0.6459 -2.066,1.5501 -8.777,33.3263 -8.777,87.5786 -8.648,101.6586 z m 8.778,-49.7315 4.001,-46.7602 c 0,-0.6459 0.645,-1.1626 1.291,-1.1626 l 41.951,-0.1291 c 2.453,0 4.647,1.2917 5.809,3.4876 11.746,22.3467 14.199,42.7559 14.199,54.5105 v 12.4005 c 0,1.8084 -1.42,3.2293 -3.227,3.2293 h -10.198 c -1.678,0 -3.356,-0.775 -4.388,-2.0668 L 160.229,77.5031 c -1.936,-2.1959 -4.647,-3.6168 -7.616,-3.4876 z"
       fill="#f58a6b"
       id="path73" />
    <path
       d="m 133.252,27.6426 41.693,-0.1291 c 1.807,0 3.485,1.0333 4.389,2.5834 12.133,23.1218 14.069,43.6601 14.069,53.7355 v 12.4005 c 0,0.9042 -0.774,1.6793 -1.678,1.6793 h -10.197 c -1.291,0 -2.453,-0.5167 -3.227,-1.4209 L 161.52,76.4696 c -2.194,-2.5834 -5.421,-4.1335 -8.906,-4.1335 h -23.235 z m -0.259,-1.55 c -0.645,0 -1.29,0.5166 -1.29,1.1625 l -4.002,46.7603 h 25.042 c 2.969,0 5.679,1.2917 7.616,3.4876 l 16.78,20.0216 c 1.033,1.2918 2.711,2.0668 4.389,2.0668 h 10.197 c 1.807,0 3.227,-1.4209 3.227,-3.2293 V 83.9616 c 0,-11.7547 -2.452,-32.1638 -14.199,-54.5106 -1.161,-2.1959 -3.356,-3.4876 -5.808,-3.4876 z"
       fill="#f7a58d"
       id="path75" />
    <path
       d="m 200.892,122.713 v 24.672 l 45.049,-0.129 c -0.516,-6.459 -1.678,-12.659 -3.614,-18.472 -0.775,-2.325 -2.711,-4.004 -5.164,-4.392 -9.939,-1.162 -22.589,-1.679 -36.271,-1.679 z m 91.131,24.543 h 22.331 c 0.387,-5.426 0.774,-14.209 1.161,-24.156 -5.421,0.259 -10.455,0.775 -14.973,1.421 -2.452,0.388 -4.389,2.067 -5.163,4.392 -1.807,5.684 -2.84,11.884 -3.356,18.343 z"
       fill="#f6977c"
       id="path77" />
    <path
       d="m 201.02,172.186 104.426,-0.258 c 7.099,0 12.908,-5.813 12.908,-12.917 v -2.196 c 0,-2.067 -1.678,-3.617 -3.614,-3.617 l -113.591,0.258 z"
       fill="#f6977c"
       id="path79" />
    <path
       d="m 181.787,172.187 h 19.233 v -18.73 h -29.559 l 3.227,13.046 c 0.774,3.358 3.743,5.684 7.099,5.684 z"
       fill="#f7a58d"
       id="path81" />
    <path
       d="m 135.833,103.855 c 4.389,0.129 12.908,1.033 12.908,4.133 0,3.1 -7.486,4.134 -13.553,4.134 -6.067,0 -6.713,-3.359 -7.229,-4.78 -0.387,-1.421 -0.774,-3.617 7.874,-3.487 z"
       fill="#f6977c"
       id="path83" />
    <path
       d="m 136.221,107.213 c -2.065,0 -4.26,-0.646 -5.292,-1.679 0.774,-0.388 1.936,-0.775 3.743,-0.775 3.356,0 8.778,0.387 11.617,1.679 -0.387,0.258 -1.42,0.775 -3.098,0.775 -2.065,0 -4.776,0 -6.97,0 z"
       fill="#f47b58"
       id="path85" />
    <path
       d="m 144.869,109.667 c 0.775,0 1.162,0.13 1.291,0.259 -2.323,1.033 -6.583,1.421 -8.648,1.421 -2.969,0 -5.035,0 -5.68,-0.646 0.516,-0.388 1.678,-1.034 2.84,-1.034 1.549,0.13 9.165,0 10.197,0 z"
       fill="#f47b58"
       id="path87" />
    <path
       d="m 201.02,147.514 c 0,3.746 0,5.942 0,5.942 l 113.462,-0.258 c 0,0 0.129,-2.196 0.387,-5.942 z"
       fill="#f58a6b"
       id="path89" />
    <g
       opacity="0.2"
       id="g93">
      <path
         d="m 249.942,121.421 v 24.672 l 38.079,-0.129 v -24.672 c 0,-2.971 -2.71,-5.296 -6.067,-5.296 H 255.88 c -3.227,0.129 -5.938,2.584 -5.938,5.425 z"
         fill="#f16036"
         id="path91" />
    </g>
    <path
       d="m 300.8,145.189 h 8.003 c 2.065,0 3.873,-1.679 3.873,-3.875 v -4.004 c 0,-2.067 -1.678,-3.875 -3.873,-3.875 H 300.8 c -2.065,0 -3.872,1.679 -3.872,3.875 v 4.004 c 0,2.196 1.807,3.875 3.872,3.875 z"
       fill="#ffffff"
       id="path95" />
    <path
       d="m 225.027,145.448 h 8.003 c 2.065,0 3.872,-1.679 3.872,-3.875 v -4.004 c 0,-2.067 -1.678,-3.876 -3.872,-3.876 h -8.003 c -2.066,0 -3.873,1.68 -3.873,3.876 v 4.004 c 0,2.067 1.678,3.875 3.873,3.875 z"
       fill="#ffffff"
       id="path97" />
    <path
       d="m 173.395,76.858 c 0,0.5166 0.388,0.9042 0.775,1.0333 5.034,0.5167 10.326,0.5167 15.748,-0.1291 0.645,-0.1292 1.033,-0.5167 1.033,-1.1626 0.387,-10.3337 0.387,-20.4091 0,-29.9678 0,-0.6459 -0.517,-1.0334 -1.033,-1.1625 -5.551,-0.6459 -11.101,-0.6459 -16.91,0 -0.516,0.1291 -0.903,0.6458 -0.903,1.1625 -0.388,9.6879 0.129,19.7632 1.29,30.2262 z"
       fill="#f7a58d"
       id="path99" />
    <path
       d="m 193.402,86.0289 c 0.387,0 0.775,-0.2583 0.904,-0.6458 0.258,-0.5167 0,-1.1626 -0.517,-1.4209 l -8.777,-4.2627 c -1.291,-0.6459 -2.194,-2.0668 -2.194,-3.4877 l -0.13,-32.4221 c 0,-0.1292 0.13,-0.1292 0.13,-0.1292 h 5.421 c 0.645,0 1.033,-0.5167 1.033,-1.0334 0,-0.6458 -0.517,-1.0333 -1.033,-1.0333 h -5.421 c -1.291,0 -2.324,1.0333 -2.324,2.325 l 0.129,32.4222 c 0,2.3251 1.291,4.3919 3.356,5.4253 l 8.778,4.2626 c 0.387,0 0.516,0 0.645,0 z"
       fill="#f69276"
       id="path101" />
    <path
       d="m 252.604,173.716 36.53,-0.08 -0.024,-10.979 -36.53,0.079 z"
       fill="#f8b4a0"
       id="path103" />
    <path
       opacity="0.6"
       d="m 188.508,23.9 c 8.003,18.3424 13.941,35.2639 19.62,58.9023 L 313.716,82.544 C 307.65,60.3264 292.289,36.688 285.964,28.0335 c -2.065,-2.8418 -3.872,-5.2961 -5.421,-7.492 l -90.099,0.2584 c -1.549,0.1291 -2.582,1.6792 -1.936,3.1001 z"
       fill="url(#paint1_linear_521_8)"
       id="path105"
       style="fill:url(#paint1_linear_521_8)" />
    <path
       d="m 125.325,185.603 c -1.898,-8.741 -5.028,-17.007 -9.202,-24.608 -0.569,-1.046 -1.234,-2.186 -1.898,-3.231 -4.838,-8.076 -10.814,-15.297 -17.7396,-21.568 -0.8538,-0.855 -1.8024,-1.615 -2.7511,-2.375 -7.3996,-6.176 -15.8427,-11.211 -24.9499,-14.822 -1.1384,-0.475 -2.2767,-0.855 -3.4151,-1.235 -9.1072,-3.23 -18.9733,-5.035 -29.124,-5.225 -0.5692,0 -1.2333,0 -1.8025,0 -0.5692,0 -1.2332,0 -1.8024,0 -10.2456,0.19 -20.0168,1.995 -29.12402,5.225 -1.1384,0.38 -2.27678,0.855 -3.415172,1.235 -9.107168,3.611 -17.550308,8.646 -24.949908,14.822 -0.9486,0.76 -1.8973,1.615 -2.7511,2.375 -6.9252,6.271 -12.9967,13.492 -17.74,21.568 -0.6641,1.045 -1.2333,2.185 -1.8973,3.231 -4.1742,7.601 -7.3047,15.867 -9.2021,24.608 -0.2845,1.235 -0.4743,2.47 -0.7589,3.705 -0.9487,5.321 -1.423,10.736 -1.423,16.247 H 127.412 c 0,-5.511 -0.474,-11.021 -1.423,-16.247 -0.19,-1.235 -0.38,-2.47 -0.664,-3.705 z"
       fill="#fcddd4"
       id="path107" />
  </g>
  <defs
     id="defs203">
    <filter
       id="filter0_d_521_8"
       x="675"
       y="40"
       width="630"
       height="680"
       filterUnits="userSpaceOnUse"
       color-interpolation-filters="sRGB">
      <feFlood
         flood-opacity="0"
         result="BackgroundImageFix"
         id="feFlood163" />
      <feColorMatrix
         in="SourceAlpha"
         type="matrix"
         values="0 0 0 0 0 0 0 0 0 0 0 0 0 0 0 0 0 0 127 0"
         result="hardAlpha"
         id="feColorMatrix165" />
      <feOffset
         dy="20"
         id="feOffset167" />
      <feGaussianBlur
         stdDeviation="20"
         id="feGaussianBlur169" />
      <feColorMatrix
         type="matrix"
         values="0 0 0 0 0.933333 0 0 0 0 0.301961 0 0 0 0 0.278431 0 0 0 0.1 0"
         id="feColorMatrix171" />
      <feBlend
         mode="multiply"
         in2="BackgroundImageFix"
         result="effect1_dropShadow_521_8"
         id="feBlend173" />
      <feBlend
         mode="normal"
         in="SourceGraphic"
         in2="effect1_dropShadow_521_8"
         result="shape"
         id="feBlend175" />
    </filter>
    <filter
       id="filter1_d_521_8"
       x="750"
       y="137"
       width="480"
       height="138.2"
       filterUnits="userSpaceOnUse"
       color-interpolation-filters="sRGB">
      <feFlood
         flood-opacity="0"
         result="BackgroundImageFix"
         id="feFlood178" />
      <feColorMatrix
         in="SourceAlpha"
         type="matrix"
         values="0 0 0 0 0 0 0 0 0 0 0 0 0 0 0 0 0 0 127 0"
         result="hardAlpha"
         id="feColorMatrix180" />
      <feOffset
         dy="20"
         id="feOffset182" />
      <feGaussianBlur
         stdDeviation="20"
         id="feGaussianBlur184" />
      <feColorMatrix
         type="matrix"
         values="0 0 0 0 0.931499 0 0 0 0 0.300448 0 0 0 0 0.28035 0 0 0 0.2 0"
         id="feColorMatrix186" />
      <feBlend
         mode="multiply"
         in2="BackgroundImageFix"
         result="effect1_dropShadow_521_8"
         id="feBlend188" />
      <feBlend
         mode="normal"
         in="SourceGraphic"
         in2="effect1_dropShadow_521_8"
         result="shape"
         id="feBlend190" />
    </filter>
    <linearGradient
       id="paint0_linear_521_8"
       x1="300.5"
       y1="270.318"
       x2="300.5"
       y2="728.71"
       gradientUnits="userSpaceOnUse">
      <stop
         stop-color="#F37753"
         id="stop193" />
      <stop
         offset="1"
         stop-color="white"
         stop-opacity="0"
         id="stop195" />
    </linearGradient>
    <linearGradient
       id="paint1_linear_521_8"
       x1="237.764"
       y1="0.781219"
       x2="288.316"
       y2="121.884"
       gradientUnits="userSpaceOnUse">
      <stop
         stop-color="#F7A58D"
         id="stop198" />
      <stop
         offset="0.926161"
         stop-color="white"
         id="stop200" />
    </linearGradient>
    <clipPath
       clipPathUnits="userSpaceOnUse"
       id="clipPath4060">
      <rect
         style="fill:none;stroke:#000000;stroke-width:2"
         id="rect4062"
         width="1400.0005"
         height="916.96338"
         x="2.0116301"
         y="1.8851271" />
    </clipPath>
  </defs>
</svg>
